<svg xmlns="http://www.w3.org/2000/svg" width="1283.501" height="1345.263" viewBox="0 0 1283.501 1345.263"><g transform="translate(-3884 -6007)"><path d="M3026.255-113.938a4.935,4.935,0,0,0-4.861,4.121h-106.5a4.935,4.935,0,0,0-4.861-4.121,4.944,4.944,0,0,0-4.944,4.944,4.944,4.944,0,0,0,4.944,4.945,4.935,4.935,0,0,0,4.861-4.12h106.5a4.935,4.935,0,0,0,4.861,4.12,4.944,4.944,0,0,0,4.944-4.945A4.944,4.944,0,0,0,3026.255-113.938Z" transform="translate(1321.447 6212.109)" fill="#00b3eb"/><path d="M3026.255,608.821a4.935,4.935,0,0,0-4.861,4.121h-106.5a4.943,4.943,0,1,0,0,1.648h106.5a4.938,4.938,0,1,0,4.861-5.769Z" transform="translate(1321.447 6260.109)" fill="#00b3eb"/><path d="M3443.856-113.938a4.934,4.934,0,0,0-4.861,4.121h-106.5a4.935,4.935,0,0,0-4.861-4.121,4.945,4.945,0,0,0-4.945,4.944,4.945,4.945,0,0,0,4.945,4.945,4.935,4.935,0,0,0,4.861-4.12H3439a4.935,4.935,0,0,0,4.861,4.12,4.944,4.944,0,0,0,4.944-4.945A4.944,4.944,0,0,0,3443.856-113.938Z" transform="translate(1321.447 6212.109)" fill="#00b3eb"/><path d="M3443.856,603.877A4.934,4.934,0,0,0,3439,608h-106.5a4.943,4.943,0,1,0,0,1.648H3439a4.938,4.938,0,1,0,4.861-5.769Z" transform="translate(1321.447 6260.109)" fill="#00b3eb"/><path d="M3845.231-109.817H3733.965a4.933,4.933,0,0,0-4.861-4.121,4.944,4.944,0,0,0-4.944,4.944,4.944,4.944,0,0,0,4.944,4.945,4.935,4.935,0,0,0,4.861-4.12h111.266" transform="translate(1321.447 6212.109)" fill="#00b3eb"/><path d="M3845.231,604.911H3733.965a4.943,4.943,0,1,0,0,1.648h111.266" transform="translate(1321.447 6260.109)" fill="#00b3eb"/><g transform="translate(1321.447 6212.109)"><path d="M2562.553,35.264v324.19H2867.1c.58-.59,1.17-1.17,1.75-1.75q40.38-40.38,80.75-80.76V35.264Zm385.3,25.12c-1.25-1.25-2.5-2.51-3.75-3.76V65.6l3.75,3.75v1.77l-3.75-3.75v9.14l3.75,3.75v195.87q-40.77,40.785-81.56,81.57h-118.18l-3.79-3.8h-9.15l3.8,3.8h-1.77l-3.79-3.8h-8.98l3.8,3.8h-1.89l-3.8-3.8h-9.14l3.8,3.8h-1.77l-3.8-3.8h-8.97l3.8,3.8h-98.87l-3.8-3.8h-9.14l3.8,3.8h-1.77l-3.8-3.8h-8.97l3.8,3.8h-2.29l-21.12-21.12v-2.29l3.75,3.75v-8.98l-3.75-3.74v-1.77l3.75,3.74V170.664l-3.75-3.75V57.234l20.22-20.22h158.81l3.75,3.75h9.15l-3.76-3.75h1.77l3.75,3.75h8.98l-3.75-3.75h1.89l3.75,3.75H2778l-3.75-3.75h1.77l3.75,3.75h8.97l-3.75-3.75H2904.6l3.76,3.75h9.14l-3.76-3.75h1.77l3.76,3.75h8.97l-3.75-3.75h3.1l20.26,20.26Z" fill="#00b3eb"/><path d="M2944.1,56.624V65.6l3.75,3.75v1.77l-3.75-3.75v9.14l3.75,3.75v195.87q-40.77,40.785-81.56,81.57h-118.18l-3.79-3.8h-9.15l3.8,3.8h-1.77l-3.79-3.8h-8.98l3.8,3.8h-1.89l-3.8-3.8h-9.14l3.8,3.8h-1.77l-3.8-3.8h-8.97l3.8,3.8h-98.87l-3.8-3.8h-9.14l3.8,3.8h-1.77l-3.8-3.8h-8.97l3.8,3.8h-2.29l-21.12-21.12v-2.29l3.75,3.75v-8.98l-3.75-3.74v-1.77l3.75,3.74V170.664l-3.75-3.75V57.234l20.22-20.22h158.81l3.75,3.75h9.15l-3.76-3.75h1.77l3.75,3.75h8.98l-3.75-3.75h1.89l3.75,3.75H2778l-3.75-3.75h1.77l3.75,3.75h8.97l-3.75-3.75H2904.6l3.76,3.75h9.14l-3.76-3.75h1.77l3.76,3.75h8.97l-3.75-3.75h3.1l20.26,20.26v3.11C2946.6,59.134,2945.353,57.874,2944.1,56.624Z" fill="#0b282d"/><text transform="translate(2617.281 52.792)" fill="#f4f4f4" font-size="18" font-family="Montserrat-Regular, Montserrat"><tspan x="0" y="17">Creation of CHRONOFi Core Team </tspan><tspan x="0" y="44">Blockchain research and </tspan><tspan x="0" y="71">development </tspan><tspan x="0" y="98">CHRONOFi Logo and Gameplay </tspan><tspan x="0" y="125">design </tspan><tspan x="0" y="152">CHRONOFi website development </tspan><tspan x="0" y="179">Official launch of CHRONOFi </tspan><tspan x="0" y="206">( website, social media accounts, </tspan><tspan x="0" y="233">email. etc ) </tspan><tspan x="0" y="260">Official teaser release </tspan></text><text transform="translate(2591.729 51.51)" fill="#f4f4f4" font-size="18" font-family="SegoeUI, Segoe UI"><tspan x="0" y="19">a</tspan><tspan x="0" y="46">a</tspan><tspan x="0" y="73"></tspan><tspan x="0" y="100">a</tspan><tspan x="0" y="127"></tspan><tspan x="0" y="154">a</tspan><tspan x="0" y="181">a</tspan><tspan x="0" y="208"></tspan><tspan x="0" y="235"></tspan><tspan x="0" y="262">a</tspan><tspan font-family="OmnicSans-Regular"><tspan x="0" y="289"></tspan></tspan></text></g><g transform="translate(1321.447 6212.109)"><path d="M2982.84,35.264v324.19h304.55c.58-.59,1.17-1.17,1.75-1.75q40.38-40.38,80.75-80.76V35.264Zm385.3,25.12c-1.25-1.25-2.5-2.51-3.75-3.76V65.6l3.75,3.75v1.77l-3.75-3.75v9.14l3.75,3.75v195.87q-40.77,40.785-81.56,81.57H3168.4l-3.79-3.8h-9.15l3.8,3.8h-1.77l-3.79-3.8h-8.98l3.8,3.8h-1.89l-3.8-3.8h-9.14l3.8,3.8h-1.77l-3.8-3.8h-8.97l3.8,3.8h-98.87l-3.8-3.8h-9.14l3.8,3.8h-1.77l-3.8-3.8h-8.97l3.8,3.8h-2.29l-21.12-21.12v-2.29l3.75,3.75v-8.98l-3.75-3.74v-1.77l3.75,3.74V170.664l-3.75-3.75V57.234l20.22-20.22h158.81l3.75,3.75h9.15l-3.76-3.75h1.77l3.75,3.75h8.98l-3.75-3.75h1.89l3.75,3.75h9.14l-3.75-3.75h1.77l3.75,3.75h8.97l-3.75-3.75h119.61l3.76,3.75h9.14l-3.76-3.75h1.77l3.76,3.75h8.97l-3.75-3.75h3.1l20.26,20.26Z" fill="#00b3eb"/><path d="M3364.39,56.624V65.6l3.75,3.75v1.77l-3.75-3.75v9.14l3.75,3.75v195.87q-40.77,40.785-81.56,81.57H3168.4l-3.79-3.8h-9.15l3.8,3.8h-1.77l-3.79-3.8h-8.98l3.8,3.8h-1.89l-3.8-3.8h-9.14l3.8,3.8h-1.77l-3.8-3.8h-8.97l3.8,3.8h-98.87l-3.8-3.8h-9.14l3.8,3.8h-1.77l-3.8-3.8h-8.97l3.8,3.8h-2.29l-21.12-21.12v-2.29l3.75,3.75v-8.98l-3.75-3.74v-1.77l3.75,3.74V170.664l-3.75-3.75V57.234l20.22-20.22h158.81l3.75,3.75h9.15l-3.76-3.75h1.77l3.75,3.75h8.98l-3.75-3.75h1.89l3.75,3.75h9.14l-3.75-3.75h1.77l3.75,3.75h8.97l-3.75-3.75h119.61l3.76,3.75h9.14l-3.76-3.75h1.77l3.76,3.75h8.97l-3.75-3.75h3.1l20.26,20.26v3.11C3366.89,59.134,3365.64,57.874,3364.39,56.624Z" fill="#0b282d"/><text transform="translate(3037.568 52.791)" fill="#f4f4f4" font-size="18" font-family="Montserrat-Regular, Montserrat"><tspan x="0" y="17">2D Pre-Alpha Turn-Based </tspan><tspan x="0" y="44">CHRONOFi Games </tspan><tspan x="0" y="71">Community Growth &amp; Global Event </tspan><tspan x="0" y="98">Airdrop </tspan><tspan x="0" y="125" xml:space="preserve">     #1</tspan><tspan x="0" y="152" xml:space="preserve">     #2</tspan><tspan x="0" y="179" xml:space="preserve">     #3</tspan><tspan x="0" y="206">Sticker &amp; Meme Contest </tspan><tspan x="0" y="233">Smart Contract Audit </tspan><tspan x="0" y="260">Website v2 release </tspan></text><text transform="translate(3012.016 51.51)" fill="#f4f4f4" font-size="18" font-family="SegoeUI, Segoe UI"><tspan x="0" y="19">a</tspan><tspan x="0" y="46">a</tspan><tspan x="0" y="73">a</tspan><tspan x="0" y="100">a</tspan><tspan x="0" y="127" xml:space="preserve">    o</tspan><tspan x="0" y="154" xml:space="preserve">    o</tspan><tspan x="0" y="181" xml:space="preserve">    o</tspan><tspan x="0" y="208">a</tspan><tspan x="0" y="235">a</tspan><tspan x="0" y="262">a</tspan><tspan font-family="OmnicSans-Regular"><tspan x="0" y="289"></tspan></tspan></text></g><g transform="translate(1321.447 6259.109)"><path d="M3401.6,754.936v338.218h304.549c.58-.59,1.17-1.17,1.75-1.75q40.38-40.38,80.75-80.76V754.936Zm385.3,25.12c-1.25-1.25-2.5-2.51-3.75-3.76v8.98l3.75,3.75v1.77l-3.75-3.75v9.14l3.75,3.75v209.9q-40.77,40.785-81.56,81.57H3587.157l-3.79-3.8h-9.15l3.8,3.8h-1.77l-3.79-3.8h-8.98l3.8,3.8h-1.89l-3.8-3.8h-9.14l3.8,3.8h-1.77l-3.8-3.8h-8.97l3.8,3.8h-98.87l-3.8-3.8h-9.14l3.8,3.8h-1.77l-3.8-3.8h-8.97l3.8,3.8h-2.29l-21.12-21.12v-2.29l3.75,3.75v-8.98l-3.75-3.74v-1.77l3.75,3.74V890.336l-3.75-3.75V776.906l20.22-20.22h158.81l3.75,3.75h9.15l-3.76-3.75h1.77l3.75,3.75h8.98l-3.75-3.75h1.89l3.75,3.75h9.14l-3.75-3.75h1.77l3.75,3.75h8.97l-3.75-3.75h119.609l3.76,3.75h9.14l-3.76-3.75h1.77l3.76,3.75h8.97l-3.75-3.75h3.1l20.26,20.26Z" fill="#00b3eb"/><path d="M3783.146,776.3v8.98l3.75,3.75v1.77l-3.75-3.75v9.14l3.75,3.75v209.9q-40.77,40.785-81.56,81.57H3587.157l-3.79-3.8h-9.15l3.8,3.8h-1.77l-3.79-3.8h-8.98l3.8,3.8h-1.89l-3.8-3.8h-9.14l3.8,3.8h-1.77l-3.8-3.8h-8.97l3.8,3.8h-98.87l-3.8-3.8h-9.14l3.8,3.8h-1.77l-3.8-3.8h-8.97l3.8,3.8h-2.29l-21.12-21.12v-2.29l3.75,3.75v-8.98l-3.75-3.74v-1.77l3.75,3.74V890.336l-3.75-3.75V776.906l20.22-20.22h158.81l3.75,3.75h9.15l-3.76-3.75h1.77l3.75,3.75h8.98l-3.75-3.75h1.89l3.75,3.75h9.14l-3.75-3.75h1.77l3.75,3.75h8.97l-3.75-3.75h119.609l3.76,3.75h9.14l-3.76-3.75h1.77l3.76,3.75h8.97l-3.75-3.75h3.1l20.26,20.26v3.11C3785.646,778.806,3784.4,777.546,3783.146,776.3Z" fill="#0b282d"/><text transform="translate(3456.325 772.463)" fill="#f4f4f4" font-size="18" font-family="Montserrat-Regular, Montserrat"><tspan x="0" y="17">Team Expansion</tspan><tspan x="0" y="44">Release the Beta Game with the </tspan><tspan x="0" y="71">Campaign Quests</tspan><tspan x="0" y="98">Release the Function build GUILD</tspan><tspan x="0" y="125">Release the Party PvE Guild Mode</tspan><tspan x="0" y="152">Release New Skins &amp; Skills</tspan><tspan x="0" y="179">Release Function PvP Mode &amp; Chat </tspan><tspan x="0" y="206">System</tspan><tspan x="0" y="233">Release New Skins and Skills</tspan><tspan x="0" y="260">Cross-Chain with Binance Smart </tspan><tspan x="0" y="287">Chain</tspan></text><text transform="translate(3430.773 771.182)" fill="#f4f4f4" font-size="18" font-family="SegoeUI, Segoe UI"><tspan x="0" y="19">a</tspan><tspan x="0" y="46">a</tspan><tspan x="0" y="73">a</tspan><tspan x="0" y="100">a</tspan><tspan x="0" y="127">a</tspan><tspan x="0" y="154">a</tspan><tspan x="0" y="181">a</tspan><tspan x="0" y="208"></tspan><tspan x="0" y="235">a</tspan><tspan x="0" y="262">a</tspan><tspan font-family="OmnicSans-Regular"><tspan x="0" y="289"></tspan></tspan></text></g><g transform="translate(1321.447 6259.109)"><path d="M2982.84,754.936V974.477h304.55c.58-.59,1.17-1.17,1.75-1.75q40.38-40.38,80.75-80.76V754.936Zm385.3,25.12c-1.25-1.25-2.5-2.51-3.75-3.76v8.98l3.75,3.75v1.77l-3.75-3.75v9.14l3.75,3.75v91.221q-40.77,40.785-81.56,81.57H3168.4l-3.79-3.8h-9.15l3.8,3.8h-1.77l-3.79-3.8h-8.98l3.8,3.8h-1.89l-3.8-3.8h-9.14l3.8,3.8h-1.77l-3.8-3.8h-8.97l3.8,3.8h-98.87l-3.8-3.8h-9.14l3.8,3.8h-1.77l-3.8-3.8h-8.97l3.8,3.8h-2.29l-21.12-21.12v-2.29l3.75,3.75v-8.98l-3.75-3.74v-1.77l3.75,3.74V890.336l-3.75-3.75V776.906l20.22-20.22h158.81l3.75,3.75h9.15l-3.76-3.75h1.77l3.75,3.75h8.98l-3.75-3.75h1.89l3.75,3.75h9.14l-3.75-3.75h1.77l3.75,3.75h8.97l-3.75-3.75h119.61l3.76,3.75h9.14l-3.76-3.75h1.77l3.76,3.75h8.97l-3.75-3.75h3.1l20.26,20.26Z" fill="#00b3eb"/><path d="M3364.39,776.3v8.98l3.75,3.75v1.77l-3.75-3.75v9.14l3.75,3.75v91.221q-40.77,40.785-81.56,81.57H3168.4l-3.79-3.8h-9.15l3.8,3.8h-1.77l-3.79-3.8h-8.98l3.8,3.8h-1.89l-3.8-3.8h-9.14l3.8,3.8h-1.77l-3.8-3.8h-8.97l3.8,3.8h-98.87l-3.8-3.8h-9.14l3.8,3.8h-1.77l-3.8-3.8h-8.97l3.8,3.8h-2.29l-21.12-21.12v-2.29l3.75,3.75v-8.98l-3.75-3.74v-1.77l3.75,3.74V890.336l-3.75-3.75V776.906l20.22-20.22h158.81l3.75,3.75h9.15l-3.76-3.75h1.77l3.75,3.75h8.98l-3.75-3.75h1.89l3.75,3.75h9.14l-3.75-3.75h1.77l3.75,3.75h8.97l-3.75-3.75h119.61l3.76,3.75h9.14l-3.76-3.75h1.77l3.76,3.75h8.97l-3.75-3.75h3.1l20.26,20.26v3.11C3366.89,778.806,3365.64,777.546,3364.39,776.3Z" fill="#0b282d"/><text transform="translate(3037.568 772.463)" fill="#f4f4f4" font-size="18" font-family="Montserrat-Regular, Montserrat"><tspan x="0" y="17">Team Expansion</tspan><tspan x="0" y="44">Metaverse NFT Marketplace </tspan><tspan x="0" y="71">Development</tspan><tspan x="0" y="98">Release Official Game</tspan><tspan x="0" y="125">Game Version Upgrade</tspan><tspan x="0" y="152">Release the Tournament </tspan><tspan x="0" y="179">Event</tspan></text><text transform="translate(3012.016 771.182)" fill="#f4f4f4" font-size="18" font-family="SegoeUI, Segoe UI"><tspan x="0" y="19">a</tspan><tspan x="0" y="46">a</tspan><tspan x="0" y="73">a</tspan><tspan x="0" y="100">a</tspan><tspan x="0" y="127">a</tspan><tspan x="0" y="154">a</tspan></text></g><g transform="translate(1321.447 6259.109)"><path d="M2562.553,754.936V974.477H2867.1c.58-.59,1.17-1.17,1.75-1.75q40.38-40.38,80.75-80.76V754.936Zm385.3,25.12c-1.25-1.25-2.5-2.51-3.75-3.76v8.98l3.75,3.75v1.77l-3.75-3.75v9.14l3.75,3.75v91.221q-40.77,40.785-81.56,81.57h-118.18l-3.79-3.8h-9.15l3.8,3.8h-1.77l-3.79-3.8h-8.98l3.8,3.8h-1.89l-3.8-3.8h-9.14l3.8,3.8h-1.77l-3.8-3.8h-8.97l3.8,3.8h-98.87l-3.8-3.8h-9.14l3.8,3.8h-1.77l-3.8-3.8h-8.97l3.8,3.8h-2.29l-21.12-21.12v-2.29l3.75,3.75v-8.98l-3.75-3.74v-1.77l3.75,3.74V890.336l-3.75-3.75V776.906l20.22-20.22h158.81l3.75,3.75h9.15l-3.76-3.75h1.77l3.75,3.75h8.98l-3.75-3.75h1.89l3.75,3.75H2778l-3.75-3.75h1.77l3.75,3.75h8.97l-3.75-3.75H2904.6l3.76,3.75h9.14l-3.76-3.75h1.77l3.76,3.75h8.97l-3.75-3.75h3.1l20.26,20.26Z" fill="#00b3eb"/><path d="M2944.1,776.3v8.98l3.75,3.75v1.77l-3.75-3.75v9.14l3.75,3.75v91.221q-40.77,40.785-81.56,81.57h-118.18l-3.79-3.8h-9.15l3.8,3.8h-1.77l-3.79-3.8h-8.98l3.8,3.8h-1.89l-3.8-3.8h-9.14l3.8,3.8h-1.77l-3.8-3.8h-8.97l3.8,3.8h-98.87l-3.8-3.8h-9.14l3.8,3.8h-1.77l-3.8-3.8h-8.97l3.8,3.8h-2.29l-21.12-21.12v-2.29l3.75,3.75v-8.98l-3.75-3.74v-1.77l3.75,3.74V890.336l-3.75-3.75V776.906l20.22-20.22h158.81l3.75,3.75h9.15l-3.76-3.75h1.77l3.75,3.75h8.98l-3.75-3.75h1.89l3.75,3.75H2778l-3.75-3.75h1.77l3.75,3.75h8.97l-3.75-3.75H2904.6l3.76,3.75h9.14l-3.76-3.75h1.77l3.76,3.75h8.97l-3.75-3.75h3.1l20.26,20.26v3.11C2946.6,778.806,2945.353,777.546,2944.1,776.3Z" fill="#0b282d"/><text transform="translate(2617.281 772.463)" fill="#f4f4f4" font-size="18" font-family="Montserrat-Regular, Montserrat"><tspan x="0" y="17">Release Metaverse NFT </tspan><tspan x="0" y="44">Marketplace</tspan><tspan x="0" y="71">Marketing Campaign</tspan></text><text transform="translate(2591.729 771.182)" fill="#f4f4f4" font-size="18" font-family="SegoeUI, Segoe UI"><tspan x="0" y="19">a</tspan><tspan x="0" y="46">a</tspan><tspan x="0" y="73">a</tspan><tspan font-family="OmnicSans-Regular"><tspan x="0" y="100"></tspan></tspan></text></g><g transform="translate(1321.447 6212.109)"><path d="M3401.276,35.264l.641,492.124H3706a1.112,1.112,0,0,0,.788-.329c.474-.477.953-.949,1.425-1.421q40.217-40.217,80.423-80.433a1.115,1.115,0,0,0,.326-.789l-.642-409.152Zm385.3,25.12c-1.25-1.25-2.5-2.51-3.75-3.76V65.6l3.75,3.75v1.77l-3.75-3.75v9.14l3.75,3.75.642,363.342a1.115,1.115,0,0,1-.326.789q-40.445,40.458-80.907,80.917a1.112,1.112,0,0,1-.787.326H3587.94a1.11,1.11,0,0,1-.788-.327l-3.138-3.146a1.112,1.112,0,0,0-.788-.327h-6a1.113,1.113,0,0,0-.787,1.9l1.9,1.9h-1.308a1.11,1.11,0,0,1-.788-.327l-3.138-3.146a1.112,1.112,0,0,0-.788-.327h-5.831a1.113,1.113,0,0,0-.787,1.9l1.9,1.9h-1.429a1.112,1.112,0,0,1-.787-.326l-3.148-3.148a1.117,1.117,0,0,0-.787-.326h-5.992a1.113,1.113,0,0,0-.787,1.9l1.9,1.9h-1.309a1.113,1.113,0,0,1-.787-.326l-3.148-3.148a1.117,1.117,0,0,0-.787-.326h-5.822a1.113,1.113,0,0,0-.787,1.9h0a1.113,1.113,0,0,1-.787,1.9h-95.722a1.112,1.112,0,0,1-.787-.326l-3.148-3.148a1.117,1.117,0,0,0-.787-.326h-5.992a1.113,1.113,0,0,0-.787,1.9l1.9,1.9h-1.309a1.113,1.113,0,0,1-.787-.326l-3.148-3.148a1.117,1.117,0,0,0-.787-.326h-5.822a1.113,1.113,0,0,0-.787,1.9l1.9,1.9h-1.829a1.113,1.113,0,0,1-.787-.326l-20.468-20.468a1.111,1.111,0,0,1-.326-.787v-1.829l1.655,1.655a1.113,1.113,0,0,0,1.9-.861l-.445-6.666-3.75-3.74v-1.77l3.75,3.74V170.664l-3.75-3.75V57.234l20.22-20.22h158.81l3.75,3.75h9.15l-3.76-3.75h1.77l3.75,3.75h8.98l-3.75-3.75h1.89l3.75,3.75h9.14l-3.75-3.75h1.77l3.75,3.75h8.97l-3.75-3.75h119.609l3.76,3.75h9.14l-3.76-3.75h1.77l3.76,3.75h8.97l-3.75-3.75h3.1l20.26,20.26Z" fill="#00b3eb"/><path d="M3782.825,56.624V65.6l3.75,3.75v1.77l-3.75-3.75v9.14l3.75,3.75.642,363.342a1.115,1.115,0,0,1-.326.789q-40.445,40.458-80.907,80.917a1.112,1.112,0,0,1-.787.326H3587.94a1.11,1.11,0,0,1-.788-.327l-3.138-3.146a1.112,1.112,0,0,0-.788-.327h-6a1.113,1.113,0,0,0-.787,1.9l1.9,1.9h-1.308a1.11,1.11,0,0,1-.788-.327l-3.138-3.146a1.112,1.112,0,0,0-.788-.327h-5.831a1.113,1.113,0,0,0-.787,1.9l1.9,1.9h-1.429a1.112,1.112,0,0,1-.787-.326l-3.148-3.148a1.117,1.117,0,0,0-.787-.326h-5.992a1.113,1.113,0,0,0-.787,1.9l1.9,1.9h-1.309a1.113,1.113,0,0,1-.787-.326l-3.148-3.148a1.117,1.117,0,0,0-.787-.326h-5.822a1.113,1.113,0,0,0-.787,1.9h0a1.113,1.113,0,0,1-.787,1.9h-95.722a1.112,1.112,0,0,1-.787-.326l-3.148-3.148a1.117,1.117,0,0,0-.787-.326h-5.992a1.113,1.113,0,0,0-.787,1.9l1.9,1.9h-1.309a1.113,1.113,0,0,1-.787-.326l-3.148-3.148a1.117,1.117,0,0,0-.787-.326h-5.822a1.113,1.113,0,0,0-.787,1.9l1.9,1.9h-1.829a1.113,1.113,0,0,1-.787-.326l-20.468-20.468a1.111,1.111,0,0,1-.326-.787v-1.829l1.655,1.655a1.113,1.113,0,0,0,1.9-.861l-.445-6.666-3.75-3.74v-1.77l3.75,3.74V170.664l-3.75-3.75V57.234l20.22-20.22h158.81l3.75,3.75h9.15l-3.76-3.75h1.77l3.75,3.75h8.98l-3.75-3.75h1.89l3.75,3.75h9.14l-3.75-3.75h1.77l3.75,3.75h8.97l-3.75-3.75h119.609l3.76,3.75h9.14l-3.76-3.75h1.77l3.76,3.75h8.97l-3.75-3.75h3.1l20.26,20.26v3.11C3785.325,59.134,3784.075,57.874,3782.825,56.624Z" fill="#0b282d"/><text transform="translate(3456.646 53.433)" fill="#f4f4f4" font-size="18" font-family="Montserrat-Regular, Montserrat"><tspan x="0" y="17">Rebranding CHRONOFi to EARTH </tspan><tspan x="0" y="44">OBLIVION </tspan><tspan x="0" y="71">Create Game Design Document </tspan><tspan x="0" y="98">Develop a Prototype for the Game </tspan><tspan x="0" y="125">Release the Landing Page </tspan><tspan x="0" y="152">Release Whitepaper </tspan><tspan x="0" y="179">Release Character Skins </tspan><tspan x="0" y="206">Token Sale Plan </tspan><tspan x="0" y="233" xml:space="preserve">    Seed Sale Round </tspan><tspan x="0" y="260" xml:space="preserve">    Private Sale Round </tspan><tspan x="0" y="287">Release Trailer </tspan><tspan x="0" y="314">Release the Alpha Game on </tspan><tspan x="0" y="341">Desktop/PC </tspan><tspan x="0" y="368">Audit Smart Contract </tspan><tspan x="0" y="395">Token Sale Plan </tspan><tspan x="0" y="422" xml:space="preserve">    IDO </tspan><tspan x="0" y="449">TGE</tspan></text><text transform="translate(3430.452 51.51)" fill="#f4f4f4" font-size="18" font-family="SegoeUI, Segoe UI"><tspan x="0" y="19">a</tspan><tspan x="0" y="46"></tspan><tspan x="0" y="73">a</tspan><tspan x="0" y="100">a</tspan><tspan x="0" y="127">a</tspan><tspan x="0" y="154">a</tspan><tspan x="0" y="181">a</tspan><tspan x="0" y="208">a</tspan><tspan x="0" y="235" xml:space="preserve">    o</tspan><tspan x="0" y="262" xml:space="preserve">    o</tspan><tspan x="0" y="289">a</tspan><tspan x="0" y="316">a</tspan><tspan x="0" y="343">a</tspan><tspan x="0" y="370">a</tspan><tspan x="0" y="397">a</tspan><tspan x="0" y="424" xml:space="preserve">    o</tspan><tspan x="0" y="451">a</tspan></text></g><g transform="translate(1321.447 6212.109)"><path d="M2836.2-156.27c1.629-1.053,3.268-2.089,4.909-3.123a95.4,95.4,0,0,0-62.795-43.858q-.92,2.795-1.8,5.587A89.57,89.57,0,0,1,2836.2-156.27Z" fill="#00b3eb"/><path d="M2832.878-58.411c1.32,1.488,2.637,2.979,3.935,4.488a94.634,94.634,0,0,0,18.273-55.979,93.914,93.914,0,0,0-.876-12.626c-1.914.307-3.827.622-5.747.873a87.634,87.634,0,0,1,.811,11.753A88.83,88.83,0,0,1,2832.878-58.411Z" fill="#00b3eb"/><path d="M2713.523-186.159a88.707,88.707,0,0,1,28.673-11.265q-.765-2.815-1.515-5.635a94.317,94.317,0,0,0-30.338,12.045C2711.4-189.394,2712.449-187.768,2713.523-186.159Z" fill="#00b3eb"/><path d="M2679.116-160.082a94.479,94.479,0,0,0-14.362,50.18c0,.024,0,.047,0,.071,1.944-.62,3.9-1.216,5.848-1.813a88.688,88.688,0,0,1,13.9-46.045Q2681.826-158.917,2679.116-160.082Z" fill="#00b3eb"/><path d="M2670.947-76.231a95.408,95.408,0,0,0,21.882,33.693q1.987-2.124,3.964-4.26a89.659,89.659,0,0,1-20.22-30.972C2674.69-77.287,2672.82-76.752,2670.947-76.231Z" fill="#00b3eb"/><path d="M2816.206-40.611a88.858,88.858,0,0,1-56.286,20.063,89.025,89.025,0,0,1-27.051-4.2q-.984,2.731-1.945,5.476a94.8,94.8,0,0,0,29,4.532,94.632,94.632,0,0,0,59.771-21.224Q2817.972-38.306,2816.206-40.611Z" fill="#00b3eb"/><path d="M2760.72-30.3a78.785,78.785,0,0,1-78.7-78.7,78.786,78.786,0,0,1,78.7-78.7,78.318,78.318,0,0,1,54.83,22.348c1.1-1.313,2.209-2.615,3.321-3.916a83.428,83.428,0,0,0-58.151-23.551,83.91,83.91,0,0,0-83.815,83.815,83.91,83.91,0,0,0,83.815,83.815A83.935,83.935,0,0,0,2842.935-92.8q-2.462-.81-4.921-1.583A78.8,78.8,0,0,1,2760.72-30.3Z" fill="#00b3eb"/><path d="M2693.155-113.54a67.17,67.17,0,0,1,19.5-42.712,66.072,66.072,0,0,1,15.985-11.731c-.595-1.34-1.222-2.667-1.826-4a70.37,70.37,0,0,0-17.264,12.628,71.542,71.542,0,0,0-20.794,45.91C2690.226-113.482,2691.691-113.51,2693.155-113.54Z" fill="#00b3eb"/><path d="M2798.433-52.747a67.583,67.583,0,0,1-83.442-5.886c-1.082.995-2.2,1.958-3.293,2.935a71.986,71.986,0,0,0,88.76,6.9Q2799.456-50.786,2798.433-52.747Z" fill="#00b3eb"/><path d="M2811.255-159.358a71.5,71.5,0,0,0-43.216-20.591v4.433a67.1,67.1,0,0,1,40.111,19.264,67.189,67.189,0,0,1,19.706,46.823c1.463-.13,2.927-.246,4.392-.36A71.588,71.588,0,0,0,2811.255-159.358Z" fill="#00b3eb"/><path d="M2791.708-159.9q-.812,1.673-1.619,3.35a56.629,56.629,0,0,1,25.852,43.606h3.69A60.338,60.338,0,0,0,2791.708-159.9Z" fill="#00b3eb"/><path d="M2814.432-95.536a56.946,56.946,0,0,1-31.569,38.126q.492,1.816.978,3.634a60.67,60.67,0,0,0,34.4-41.76Z" fill="#00b3eb"/><path d="M2736.145-57.257a56.865,56.865,0,0,1-32.406-40.476q-1.79.486-3.581.962a60.584,60.584,0,0,0,34.6,42.943C2735.221-54.971,2735.679-56.115,2736.145-57.257Z" fill="#00b3eb"/><path d="M2743.942-167.361a60.551,60.551,0,0,0-43.906,46.683q1.776.585,3.55,1.142a56.857,56.857,0,0,1,41.422-44.3Q2744.474-165.6,2743.942-167.361Z" fill="#00b3eb"/><text transform="translate(2759.92 -113.476)" fill="#fff" font-size="24" font-family="SegoeUI, Segoe UI"><tspan x="-18.803" y="0">Q4 </tspan><tspan x="-25.875" y="27">2021</tspan></text></g><g transform="translate(1321.447 6212.109)"><path d="M3252.642-158.127q2.443-1.579,4.909-3.124a95.4,95.4,0,0,0-62.795-43.858q-.92,2.794-1.8,5.588A89.57,89.57,0,0,1,3252.642-158.127Z" fill="#00b3eb"/><path d="M3249.323-60.268c1.32,1.488,2.638,2.979,3.936,4.487a94.637,94.637,0,0,0,18.272-55.978,93.9,93.9,0,0,0-.876-12.626c-1.914.307-3.827.622-5.747.873a87.634,87.634,0,0,1,.811,11.753A88.833,88.833,0,0,1,3249.323-60.268Z" fill="#00b3eb"/><path d="M3129.968-188.017a88.705,88.705,0,0,1,28.673-11.264q-.765-2.817-1.515-5.636a94.354,94.354,0,0,0-30.337,12.045C3127.845-191.251,3128.894-189.626,3129.968-188.017Z" fill="#00b3eb"/><path d="M3095.561-161.94a94.482,94.482,0,0,0-14.362,50.181c0,.023,0,.047,0,.071,1.944-.621,3.9-1.216,5.848-1.814a88.7,88.7,0,0,1,13.9-46.045Q3098.271-160.774,3095.561-161.94Z" fill="#00b3eb"/><path d="M3087.392-78.089A95.4,95.4,0,0,0,3109.274-44.4q1.989-2.124,3.964-4.26a89.643,89.643,0,0,1-20.219-30.972C3091.135-79.144,3089.265-78.61,3087.392-78.089Z" fill="#00b3eb"/><path d="M3232.651-42.468a88.856,88.856,0,0,1-56.286,20.063,89,89,0,0,1-27.051-4.2q-.984,2.733-1.945,5.476a94.777,94.777,0,0,0,29,4.532,94.637,94.637,0,0,0,59.771-21.223Q3234.417-40.164,3232.651-42.468Z" fill="#00b3eb"/><path d="M3177.165-32.154a78.785,78.785,0,0,1-78.7-78.7,78.785,78.785,0,0,1,78.7-78.7A78.311,78.311,0,0,1,3232-167.2c1.1-1.313,2.209-2.615,3.321-3.917a83.431,83.431,0,0,0-58.151-23.55,83.909,83.909,0,0,0-83.815,83.814,83.909,83.909,0,0,0,83.815,83.815,83.935,83.935,0,0,0,82.215-67.617q-2.461-.81-4.921-1.583A78.8,78.8,0,0,1,3177.165-32.154Z" fill="#00b3eb"/><path d="M3109.6-115.4a67.172,67.172,0,0,1,19.5-42.713,66.125,66.125,0,0,1,15.985-11.731c-.595-1.34-1.222-2.666-1.826-4A70.388,70.388,0,0,0,3126-161.215a71.538,71.538,0,0,0-20.794,45.91Q3107.4-115.356,3109.6-115.4Z" fill="#00b3eb"/><path d="M3214.878-54.6a67.584,67.584,0,0,1-83.442-5.885c-1.082.994-2.2,1.957-3.293,2.935a71.986,71.986,0,0,0,88.76,6.9Q3215.9-52.643,3214.878-54.6Z" fill="#00b3eb"/><path d="M3227.7-161.215a71.506,71.506,0,0,0-43.217-20.592v4.433a67.1,67.1,0,0,1,40.111,19.264,67.188,67.188,0,0,1,19.706,46.824c1.463-.13,2.927-.246,4.392-.361A71.587,71.587,0,0,0,3227.7-161.215Z" fill="#00b3eb"/><path d="M3208.154-161.763c-.542,1.116-1.079,2.234-1.62,3.35a56.631,56.631,0,0,1,25.852,43.606h3.691A60.342,60.342,0,0,0,3208.154-161.763Z" fill="#00b3eb"/><path d="M3230.877-97.393a56.944,56.944,0,0,1-31.569,38.126q.492,1.815.978,3.634a60.67,60.67,0,0,0,34.4-41.76Z" fill="#00b3eb"/><path d="M3152.59-59.114a56.869,56.869,0,0,1-32.406-40.476q-1.79.484-3.58.962a60.583,60.583,0,0,0,34.6,42.942C3151.666-56.828,3152.124-57.973,3152.59-59.114Z" fill="#00b3eb"/><path d="M3160.387-169.219a60.552,60.552,0,0,0-43.905,46.684q1.776.583,3.55,1.142a56.855,56.855,0,0,1,41.421-44.3Q3160.919-167.457,3160.387-169.219Z" fill="#00b3eb"/><text transform="translate(3176.365 -115.333)" fill="#fff" font-size="24" font-family="SegoeUI, Segoe UI"><tspan x="-18.803" y="0">Q1 </tspan><tspan x="-25.875" y="27">2022</tspan></text></g><rect width="1.648" height="765.547" transform="translate(5165.854 6101.296)" fill="#00b3eb"/><g transform="translate(1321.447 6212.109)"><path d="M3671.4-156.27c1.63-1.053,3.269-2.089,4.91-3.123a95.4,95.4,0,0,0-62.8-43.858q-.92,2.795-1.8,5.587A89.57,89.57,0,0,1,3671.4-156.27Z" fill="#00b3eb"/><path d="M3668.079-58.411c1.321,1.488,2.638,2.979,3.936,4.488a94.64,94.64,0,0,0,18.272-55.979,93.955,93.955,0,0,0-.875-12.626c-1.914.307-3.828.622-5.747.873a87.8,87.8,0,0,1,.811,11.753A88.824,88.824,0,0,1,3668.079-58.411Z" fill="#00b3eb"/><path d="M3548.724-186.159a88.712,88.712,0,0,1,28.673-11.265q-.765-2.815-1.515-5.635a94.322,94.322,0,0,0-30.337,12.045C3546.6-189.394,3547.65-187.768,3548.724-186.159Z" fill="#00b3eb"/><path d="M3514.317-160.082a94.489,94.489,0,0,0-14.361,50.18c0,.024,0,.047,0,.071,1.945-.62,3.9-1.216,5.849-1.813a88.692,88.692,0,0,1,13.894-46.045Q3517.026-158.917,3514.317-160.082Z" fill="#00b3eb"/><path d="M3506.148-76.231a95.438,95.438,0,0,0,21.882,33.693q1.989-2.124,3.965-4.26a89.66,89.66,0,0,1-20.22-30.972C3509.891-77.287,3508.021-76.752,3506.148-76.231Z" fill="#00b3eb"/><path d="M3651.408-40.611a88.86,88.86,0,0,1-56.286,20.063,89.026,89.026,0,0,1-27.052-4.2q-.984,2.731-1.944,5.476a94.8,94.8,0,0,0,29,4.532,94.629,94.629,0,0,0,59.77-21.224Q3653.173-38.306,3651.408-40.611Z" fill="#00b3eb"/><path d="M3595.921-30.3a78.785,78.785,0,0,1-78.7-78.7,78.785,78.785,0,0,1,78.7-78.7,78.313,78.313,0,0,1,54.83,22.348q1.649-1.97,3.322-3.916a83.43,83.43,0,0,0-58.152-23.551,83.91,83.91,0,0,0-83.815,83.815,83.91,83.91,0,0,0,83.815,83.815A83.934,83.934,0,0,0,3678.136-92.8q-2.461-.81-4.921-1.583A78.8,78.8,0,0,1,3595.921-30.3Z" fill="#00b3eb"/><path d="M3528.357-113.54a67.165,67.165,0,0,1,19.505-42.712,66.047,66.047,0,0,1,15.984-11.731c-.595-1.34-1.222-2.667-1.825-4a70.351,70.351,0,0,0-17.264,12.628,71.538,71.538,0,0,0-20.8,45.91C3525.427-113.482,3526.892-113.51,3528.357-113.54Z" fill="#00b3eb"/><path d="M3633.634-52.747a67.583,67.583,0,0,1-83.442-5.886c-1.081.995-2.194,1.958-3.293,2.935a71.986,71.986,0,0,0,88.76,6.9Q3634.657-50.786,3633.634-52.747Z" fill="#00b3eb"/><path d="M3646.457-159.358a71.5,71.5,0,0,0-43.217-20.591v4.433a67.1,67.1,0,0,1,40.111,19.264,67.192,67.192,0,0,1,19.707,46.823c1.463-.13,2.927-.246,4.391-.36A71.586,71.586,0,0,0,3646.457-159.358Z" fill="#00b3eb"/><path d="M3626.91-159.9c-.542,1.115-1.079,2.233-1.62,3.35a56.63,56.63,0,0,1,25.852,43.606h3.691A60.34,60.34,0,0,0,3626.91-159.9Z" fill="#00b3eb"/><path d="M3649.634-95.536a56.948,56.948,0,0,1-31.57,38.126c.329,1.211.652,2.423.979,3.634a60.676,60.676,0,0,0,34.4-41.76Z" fill="#00b3eb"/><path d="M3571.346-57.257a56.867,56.867,0,0,1-32.405-40.476q-1.789.486-3.581.962a60.585,60.585,0,0,0,34.6,42.943C3570.422-54.971,3570.881-56.115,3571.346-57.257Z" fill="#00b3eb"/><path d="M3579.143-167.361a60.55,60.55,0,0,0-43.905,46.683q1.776.585,3.55,1.142a56.857,56.857,0,0,1,41.421-44.3Q3579.677-165.6,3579.143-167.361Z" fill="#00b3eb"/><text transform="translate(3595.122 -113.476)" fill="#fff" font-size="24" font-family="SegoeUI, Segoe UI"><tspan x="-18.803" y="0">Q2 </tspan><tspan x="-25.875" y="27">2022</tspan></text></g><g transform="translate(1321.447 6259.109)"><path d="M3671.4,563.4c1.63-1.053,3.269-2.089,4.91-3.123a95.4,95.4,0,0,0-62.8-43.858q-.92,2.794-1.8,5.587A89.57,89.57,0,0,1,3671.4,563.4Z" fill="#00b3eb"/><path d="M3668.079,661.261c1.321,1.489,2.638,2.979,3.936,4.488a94.3,94.3,0,0,0,17.4-68.605c-1.914.307-3.828.622-5.747.873a87.8,87.8,0,0,1,.811,11.753A88.824,88.824,0,0,1,3668.079,661.261Z" fill="#00b3eb"/><path d="M3548.724,533.513a88.713,88.713,0,0,1,28.673-11.265q-.765-2.816-1.515-5.635a94.322,94.322,0,0,0-30.337,12.045C3546.6,530.279,3547.65,531.9,3548.724,533.513Z" fill="#00b3eb"/><path d="M3514.317,559.59a94.489,94.489,0,0,0-14.361,50.18c0,.024,0,.047,0,.071,1.945-.62,3.9-1.216,5.849-1.813a88.692,88.692,0,0,1,13.894-46.045Q3517.026,560.756,3514.317,559.59Z" fill="#00b3eb"/><path d="M3506.148,643.441a95.437,95.437,0,0,0,21.882,33.693q1.989-2.124,3.965-4.26a89.661,89.661,0,0,1-20.22-30.972C3509.891,642.385,3508.021,642.92,3506.148,643.441Z" fill="#00b3eb"/><path d="M3651.408,679.061a89.081,89.081,0,0,1-83.338,15.867q-.984,2.732-1.944,5.476a94.85,94.85,0,0,0,88.766-16.692Q3653.173,681.366,3651.408,679.061Z" fill="#00b3eb"/><path d="M3595.921,689.375a78.7,78.7,0,1,1,54.83-135.044q1.649-1.969,3.322-3.916a83.767,83.767,0,1,0,24.063,76.461q-2.461-.81-4.921-1.583A78.8,78.8,0,0,1,3595.921,689.375Z" fill="#00b3eb"/><path d="M3528.357,606.132a67.166,67.166,0,0,1,19.505-42.712,66.046,66.046,0,0,1,15.984-11.731c-.595-1.34-1.222-2.667-1.825-4a70.351,70.351,0,0,0-17.264,12.628,71.537,71.537,0,0,0-20.8,45.91C3525.427,606.19,3526.892,606.162,3528.357,606.132Z" fill="#00b3eb"/><path d="M3633.634,666.925a67.583,67.583,0,0,1-83.442-5.886c-1.081.995-2.194,1.958-3.293,2.935a71.986,71.986,0,0,0,88.76,6.9Q3634.657,668.886,3633.634,666.925Z" fill="#00b3eb"/><path d="M3646.457,560.314a71.5,71.5,0,0,0-43.217-20.591v4.433a67.234,67.234,0,0,1,59.818,66.087c1.463-.13,2.927-.246,4.391-.36A71.586,71.586,0,0,0,3646.457,560.314Z" fill="#00b3eb"/><path d="M3626.91,559.767c-.542,1.115-1.079,2.233-1.62,3.35a56.63,56.63,0,0,1,25.852,43.606h3.691A60.34,60.34,0,0,0,3626.91,559.767Z" fill="#00b3eb"/><path d="M3649.634,624.136a56.948,56.948,0,0,1-31.57,38.126c.329,1.211.652,2.423.979,3.634a60.675,60.675,0,0,0,34.4-41.76Z" fill="#00b3eb"/><path d="M3571.346,662.415a56.867,56.867,0,0,1-32.405-40.476q-1.789.486-3.581.962a60.585,60.585,0,0,0,34.6,42.943C3570.422,664.7,3570.881,663.557,3571.346,662.415Z" fill="#00b3eb"/><path d="M3579.143,552.311a60.551,60.551,0,0,0-43.905,46.683q1.776.585,3.55,1.142a56.854,56.854,0,0,1,41.421-44.3Q3579.677,554.072,3579.143,552.311Z" fill="#00b3eb"/><text transform="translate(3595.122 606.196)" fill="#fff" font-size="24" font-family="SegoeUI, Segoe UI"><tspan x="-18.803" y="0">Q3 </tspan><tspan x="-25.875" y="27">2022</tspan></text></g><g transform="translate(1321.447 6259.109)"><path d="M3252.642,563.4c1.629-1.053,3.269-2.089,4.909-3.123a95.394,95.394,0,0,0-62.795-43.858q-.92,2.794-1.8,5.587A89.57,89.57,0,0,1,3252.642,563.4Z" fill="#00b3eb"/><path d="M3249.323,661.261c1.32,1.489,2.638,2.979,3.936,4.488a94.281,94.281,0,0,0,17.4-68.605c-1.914.307-3.827.622-5.747.873a87.633,87.633,0,0,1,.811,11.753A88.83,88.83,0,0,1,3249.323,661.261Z" fill="#00b3eb"/><path d="M3129.968,533.513a88.708,88.708,0,0,1,28.673-11.265q-.765-2.816-1.515-5.635a94.31,94.31,0,0,0-30.337,12.045C3127.845,530.279,3128.894,531.9,3129.968,533.513Z" fill="#00b3eb"/><path d="M3095.561,559.59a94.479,94.479,0,0,0-14.362,50.18c0,.024,0,.047,0,.071,1.944-.62,3.9-1.216,5.848-1.813a88.7,88.7,0,0,1,13.9-46.045Q3098.271,560.756,3095.561,559.59Z" fill="#00b3eb"/><path d="M3087.392,643.441a95.41,95.41,0,0,0,21.882,33.693q1.989-2.124,3.964-4.26a89.643,89.643,0,0,1-20.219-30.972C3091.135,642.385,3089.265,642.92,3087.392,643.441Z" fill="#00b3eb"/><path d="M3232.651,679.061a89.079,89.079,0,0,1-83.337,15.867q-.984,2.732-1.945,5.476a94.852,94.852,0,0,0,88.767-16.692Q3234.417,681.366,3232.651,679.061Z" fill="#00b3eb"/><path d="M3177.165,689.375A78.7,78.7,0,1,1,3232,554.331c1.1-1.313,2.209-2.615,3.321-3.916a83.767,83.767,0,1,0,24.064,76.461q-2.461-.81-4.921-1.583A78.8,78.8,0,0,1,3177.165,689.375Z" fill="#00b3eb"/><path d="M3109.6,606.132a67.168,67.168,0,0,1,19.5-42.712,66.071,66.071,0,0,1,15.985-11.731c-.595-1.34-1.222-2.667-1.826-4A70.388,70.388,0,0,0,3126,560.314a71.542,71.542,0,0,0-20.794,45.91C3106.671,606.19,3108.136,606.162,3109.6,606.132Z" fill="#00b3eb"/><path d="M3214.878,666.925a67.582,67.582,0,0,1-83.442-5.886c-1.082.995-2.2,1.958-3.293,2.935a71.986,71.986,0,0,0,88.76,6.9Q3215.9,668.886,3214.878,666.925Z" fill="#00b3eb"/><path d="M3227.7,560.314a71.5,71.5,0,0,0-43.217-20.591v4.433a67.232,67.232,0,0,1,59.817,66.087c1.463-.13,2.927-.246,4.392-.36A71.591,71.591,0,0,0,3227.7,560.314Z" fill="#00b3eb"/><path d="M3208.154,559.767c-.542,1.115-1.079,2.233-1.62,3.35a56.63,56.63,0,0,1,25.852,43.606h3.691A60.342,60.342,0,0,0,3208.154,559.767Z" fill="#00b3eb"/><path d="M3230.877,624.136a56.944,56.944,0,0,1-31.569,38.126q.492,1.816.978,3.634a60.669,60.669,0,0,0,34.4-41.76Z" fill="#00b3eb"/><path d="M3152.59,662.415a56.867,56.867,0,0,1-32.406-40.476q-1.79.486-3.58.962a60.583,60.583,0,0,0,34.6,42.943C3151.666,664.7,3152.124,663.557,3152.59,662.415Z" fill="#00b3eb"/><path d="M3160.387,552.311a60.551,60.551,0,0,0-43.905,46.683q1.776.585,3.55,1.142a56.854,56.854,0,0,1,41.421-44.3Q3160.919,554.072,3160.387,552.311Z" fill="#00b3eb"/><text transform="translate(3176.365 606.196)" fill="#fff" font-size="24" font-family="SegoeUI, Segoe UI"><tspan x="-18.803" y="0">Q4 </tspan><tspan x="-25.875" y="27">2022</tspan></text></g><g transform="translate(1321.447 6259.109)"><path d="M2836.2,563.4c1.629-1.053,3.268-2.089,4.909-3.123a95.4,95.4,0,0,0-62.795-43.858q-.92,2.794-1.8,5.587A89.57,89.57,0,0,1,2836.2,563.4Z" fill="#00b3eb"/><path d="M2832.878,661.261c1.32,1.489,2.637,2.979,3.935,4.488a94.277,94.277,0,0,0,17.4-68.605c-1.914.307-3.827.622-5.747.873a87.633,87.633,0,0,1,.811,11.753A88.83,88.83,0,0,1,2832.878,661.261Z" fill="#00b3eb"/><path d="M2713.523,533.513a88.708,88.708,0,0,1,28.673-11.265q-.765-2.816-1.515-5.635a94.317,94.317,0,0,0-30.338,12.045C2711.4,530.279,2712.449,531.9,2713.523,533.513Z" fill="#00b3eb"/><path d="M2679.116,559.59a94.479,94.479,0,0,0-14.362,50.18c0,.024,0,.047,0,.071,1.944-.62,3.9-1.216,5.848-1.813a88.688,88.688,0,0,1,13.9-46.045Q2681.826,560.756,2679.116,559.59Z" fill="#00b3eb"/><path d="M2670.947,643.441a95.407,95.407,0,0,0,21.882,33.693q1.987-2.124,3.964-4.26a89.66,89.66,0,0,1-20.22-30.972C2674.69,642.385,2672.82,642.92,2670.947,643.441Z" fill="#00b3eb"/><path d="M2816.206,679.061a89.079,89.079,0,0,1-83.337,15.867q-.984,2.732-1.945,5.476a94.852,94.852,0,0,0,88.767-16.692Q2817.972,681.366,2816.206,679.061Z" fill="#00b3eb"/><path d="M2760.72,689.375a78.7,78.7,0,1,1,54.83-135.044c1.1-1.313,2.209-2.615,3.321-3.916a83.767,83.767,0,1,0,24.064,76.461q-2.462-.81-4.921-1.583A78.8,78.8,0,0,1,2760.72,689.375Z" fill="#00b3eb"/><path d="M2693.155,606.132a67.17,67.17,0,0,1,19.5-42.712,66.071,66.071,0,0,1,15.985-11.731c-.595-1.34-1.222-2.667-1.826-4a70.371,70.371,0,0,0-17.264,12.628,71.542,71.542,0,0,0-20.794,45.91C2690.226,606.19,2691.691,606.162,2693.155,606.132Z" fill="#00b3eb"/><path d="M2798.433,666.925a67.583,67.583,0,0,1-83.442-5.886c-1.082.995-2.2,1.958-3.293,2.935a71.986,71.986,0,0,0,88.76,6.9Q2799.456,668.886,2798.433,666.925Z" fill="#00b3eb"/><path d="M2811.255,560.314a71.5,71.5,0,0,0-43.216-20.591v4.433a67.232,67.232,0,0,1,59.817,66.087c1.463-.13,2.927-.246,4.392-.36A71.588,71.588,0,0,0,2811.255,560.314Z" fill="#00b3eb"/><path d="M2791.708,559.767q-.812,1.672-1.619,3.35a56.629,56.629,0,0,1,25.852,43.606h3.69A60.338,60.338,0,0,0,2791.708,559.767Z" fill="#00b3eb"/><path d="M2814.432,624.136a56.946,56.946,0,0,1-31.569,38.126q.492,1.816.978,3.634a60.67,60.67,0,0,0,34.4-41.76Z" fill="#00b3eb"/><path d="M2736.145,662.415a56.865,56.865,0,0,1-32.406-40.476q-1.79.486-3.581.962a60.584,60.584,0,0,0,34.6,42.943C2735.221,664.7,2735.679,663.557,2736.145,662.415Z" fill="#00b3eb"/><path d="M2743.942,552.311a60.552,60.552,0,0,0-43.906,46.683q1.776.585,3.55,1.142a56.855,56.855,0,0,1,41.422-44.3Q2744.474,554.072,2743.942,552.311Z" fill="#00b3eb"/><text transform="translate(2759.92 606.196)" fill="#fff" font-size="24" font-family="SegoeUI, Segoe UI"><tspan x="-18.803" y="0">Q1 </tspan><tspan x="-25.875" y="27">2023</tspan></text></g></g></svg>