<?xml version="1.0" encoding="UTF-8" standalone="no"?>
<svg
   width="1283.501"
   height="1358.263"
   viewBox="0 0 1283.501 1358.263"
   version="1.1"
   id="svg530"
   sodipodi:docname="roadmap.svg"
   inkscape:version="1.1.2 (0a00cf5339, 2022-02-04)"
   xmlns:inkscape="http://www.inkscape.org/namespaces/inkscape"
   xmlns:sodipodi="http://sodipodi.sourceforge.net/DTD/sodipodi-0.dtd"
   xmlns="http://www.w3.org/2000/svg"
   xmlns:svg="http://www.w3.org/2000/svg">
  <defs
     id="defs534" />
  <sodipodi:namedview
     id="namedview532"
     pagecolor="#ffffff"
     bordercolor="#666666"
     borderopacity="1.0"
     inkscape:pageshadow="2"
     inkscape:pageopacity="0.0"
     inkscape:pagecheckerboard="0"
     showgrid="false"
     inkscape:zoom="0.6044485"
     inkscape:cx="641.08025"
     inkscape:cy="678.30427"
     inkscape:window-width="1920"
     inkscape:window-height="1007"
     inkscape:window-x="0"
     inkscape:window-y="0"
     inkscape:window-maximized="1"
     inkscape:current-layer="g528" />
  <g
     transform="translate(-3884 -6007)"
     id="g528">
    <path
       d="M3026.255-113.938a4.935,4.935,0,0,0-4.861,4.121h-106.5a4.935,4.935,0,0,0-4.861-4.121,4.944,4.944,0,0,0-4.944,4.944,4.944,4.944,0,0,0,4.944,4.945,4.935,4.935,0,0,0,4.861-4.12h106.5a4.935,4.935,0,0,0,4.861,4.12,4.944,4.944,0,0,0,4.944-4.945A4.944,4.944,0,0,0,3026.255-113.938Z"
       transform="translate(1321.447 6212.109)"
       fill="#00b3eb"
       id="path2" />
    <path
       d="M3026.255,608.821a4.935,4.935,0,0,0-4.861,4.121h-106.5a4.943,4.943,0,1,0,0,1.648h106.5a4.938,4.938,0,1,0,4.861-5.769Z"
       transform="translate(1321.447 6272.109)"
       fill="#00b3eb"
       id="path4" />
    <path
       d="M3443.856-113.938a4.934,4.934,0,0,0-4.861,4.121h-106.5a4.935,4.935,0,0,0-4.861-4.121,4.945,4.945,0,0,0-4.945,4.944,4.945,4.945,0,0,0,4.945,4.945,4.935,4.935,0,0,0,4.861-4.12H3439a4.935,4.935,0,0,0,4.861,4.12,4.944,4.944,0,0,0,4.944-4.945A4.944,4.944,0,0,0,3443.856-113.938Z"
       transform="translate(1321.447 6212.109)"
       fill="#00b3eb"
       id="path6" />
    <path
       d="M3443.856,603.877A4.934,4.934,0,0,0,3439,608h-106.5a4.943,4.943,0,1,0,0,1.648H3439a4.938,4.938,0,1,0,4.861-5.769Z"
       transform="translate(1321.447 6274.109)"
       fill="#00b3eb"
       id="path8" />
    <path
       d="M3845.231-109.817H3733.965a4.933,4.933,0,0,0-4.861-4.121,4.944,4.944,0,0,0-4.944,4.944,4.944,4.944,0,0,0,4.944,4.945,4.935,4.935,0,0,0,4.861-4.12h111.266"
       transform="translate(1321.447 6212.109)"
       fill="#00b3eb"
       id="path10" />
    <path
       d="M3845.231,604.911H3733.965a4.943,4.943,0,1,0,0,1.648h111.266"
       transform="translate(1321.447 6281.109)"
       fill="#00b3eb"
       id="path12" />
    <g
       transform="translate(1321.447 6212.109)"
       id="g66">
      <path
         d="M2562.553,35.264v324.19H2867.1c.58-.59,1.17-1.17,1.75-1.75q40.38-40.38,80.75-80.76V35.264Zm385.3,25.12c-1.25-1.25-2.5-2.51-3.75-3.76V65.6l3.75,3.75v1.77l-3.75-3.75v9.14l3.75,3.75v195.87q-40.77,40.785-81.56,81.57h-118.18l-3.79-3.8h-9.15l3.8,3.8h-1.77l-3.79-3.8h-8.98l3.8,3.8h-1.89l-3.8-3.8h-9.14l3.8,3.8h-1.77l-3.8-3.8h-8.97l3.8,3.8h-98.87l-3.8-3.8h-9.14l3.8,3.8h-1.77l-3.8-3.8h-8.97l3.8,3.8h-2.29l-21.12-21.12v-2.29l3.75,3.75v-8.98l-3.75-3.74v-1.77l3.75,3.74V170.664l-3.75-3.75V57.234l20.22-20.22h158.81l3.75,3.75h9.15l-3.76-3.75h1.77l3.75,3.75h8.98l-3.75-3.75h1.89l3.75,3.75H2778l-3.75-3.75h1.77l3.75,3.75h8.97l-3.75-3.75H2904.6l3.76,3.75h9.14l-3.76-3.75h1.77l3.76,3.75h8.97l-3.75-3.75h3.1l20.26,20.26Z"
         fill="#00b3eb"
         id="path14" />
      <path
         d="M2944.1,56.624V65.6l3.75,3.75v1.77l-3.75-3.75v9.14l3.75,3.75v195.87q-40.77,40.785-81.56,81.57h-118.18l-3.79-3.8h-9.15l3.8,3.8h-1.77l-3.79-3.8h-8.98l3.8,3.8h-1.89l-3.8-3.8h-9.14l3.8,3.8h-1.77l-3.8-3.8h-8.97l3.8,3.8h-98.87l-3.8-3.8h-9.14l3.8,3.8h-1.77l-3.8-3.8h-8.97l3.8,3.8h-2.29l-21.12-21.12v-2.29l3.75,3.75v-8.98l-3.75-3.74v-1.77l3.75,3.74V170.664l-3.75-3.75V57.234l20.22-20.22h158.81l3.75,3.75h9.15l-3.76-3.75h1.77l3.75,3.75h8.98l-3.75-3.75h1.89l3.75,3.75H2778l-3.75-3.75h1.77l3.75,3.75h8.97l-3.75-3.75H2904.6l3.76,3.75h9.14l-3.76-3.75h1.77l3.76,3.75h8.97l-3.75-3.75h3.1l20.26,20.26v3.11C2946.6,59.134,2945.353,57.874,2944.1,56.624Z"
         fill="#0b282d"
         id="path16" />
      <text
         transform="translate(2617.281 52.792)"
         fill="#f4f4f4"
         font-size="18"
         font-family="Montserrat-Regular, Montserrat"
         id="text38"><tspan
           x="0"
           y="17"
           id="tspan18">Creation of CHRONOFi Core Team </tspan><tspan
           x="0"
           y="44"
           id="tspan20">Blockchain research and </tspan><tspan
           x="0"
           y="71"
           id="tspan22">development </tspan><tspan
           x="0"
           y="98"
           id="tspan24">CHRONOFi Logo and Gameplay </tspan><tspan
           x="0"
           y="125"
           id="tspan26">design </tspan><tspan
           x="0"
           y="152"
           id="tspan28">CHRONOFi website development </tspan><tspan
           x="0"
           y="179"
           id="tspan30">Official launch of CHRONOFi </tspan><tspan
           x="0"
           y="206"
           id="tspan32">( website, social media accounts, </tspan><tspan
           x="0"
           y="233"
           id="tspan34">email. etc ) </tspan><tspan
           x="0"
           y="260"
           id="tspan36">Official teaser release </tspan></text>
      <text
         transform="translate(2591.729 51.51)"
         fill="#f4f4f4"
         font-size="18"
         font-family="SegoeUI, Segoe UI"
         id="text64"><tspan
           x="0"
           y="19"
           id="tspan40">a</tspan><tspan
           x="0"
           y="46"
           id="tspan42">a</tspan><tspan
           x="0"
           y="73"
           id="tspan44" /><tspan
           x="0"
           y="100"
           id="tspan46">a</tspan><tspan
           x="0"
           y="127"
           id="tspan48" /><tspan
           x="0"
           y="154"
           id="tspan50">a</tspan><tspan
           x="0"
           y="181"
           id="tspan52">a</tspan><tspan
           x="0"
           y="208"
           id="tspan54" /><tspan
           x="0"
           y="235"
           id="tspan56" /><tspan
           x="0"
           y="262"
           id="tspan58">a</tspan><tspan
           font-family="OmnicSans-Regular"
           id="tspan62"><tspan
             x="0"
             y="289"
             id="tspan60" /></tspan></text>
    </g>
    <g
       transform="translate(1321.447 6212.109)"
       id="g120">
      <path
         d="M2982.84,35.264v324.19h304.55c.58-.59,1.17-1.17,1.75-1.75q40.38-40.38,80.75-80.76V35.264Zm385.3,25.12c-1.25-1.25-2.5-2.51-3.75-3.76V65.6l3.75,3.75v1.77l-3.75-3.75v9.14l3.75,3.75v195.87q-40.77,40.785-81.56,81.57H3168.4l-3.79-3.8h-9.15l3.8,3.8h-1.77l-3.79-3.8h-8.98l3.8,3.8h-1.89l-3.8-3.8h-9.14l3.8,3.8h-1.77l-3.8-3.8h-8.97l3.8,3.8h-98.87l-3.8-3.8h-9.14l3.8,3.8h-1.77l-3.8-3.8h-8.97l3.8,3.8h-2.29l-21.12-21.12v-2.29l3.75,3.75v-8.98l-3.75-3.74v-1.77l3.75,3.74V170.664l-3.75-3.75V57.234l20.22-20.22h158.81l3.75,3.75h9.15l-3.76-3.75h1.77l3.75,3.75h8.98l-3.75-3.75h1.89l3.75,3.75h9.14l-3.75-3.75h1.77l3.75,3.75h8.97l-3.75-3.75h119.61l3.76,3.75h9.14l-3.76-3.75h1.77l3.76,3.75h8.97l-3.75-3.75h3.1l20.26,20.26Z"
         fill="#00b3eb"
         id="path68" />
      <path
         d="M3364.39,56.624V65.6l3.75,3.75v1.77l-3.75-3.75v9.14l3.75,3.75v195.87q-40.77,40.785-81.56,81.57H3168.4l-3.79-3.8h-9.15l3.8,3.8h-1.77l-3.79-3.8h-8.98l3.8,3.8h-1.89l-3.8-3.8h-9.14l3.8,3.8h-1.77l-3.8-3.8h-8.97l3.8,3.8h-98.87l-3.8-3.8h-9.14l3.8,3.8h-1.77l-3.8-3.8h-8.97l3.8,3.8h-2.29l-21.12-21.12v-2.29l3.75,3.75v-8.98l-3.75-3.74v-1.77l3.75,3.74V170.664l-3.75-3.75V57.234l20.22-20.22h158.81l3.75,3.75h9.15l-3.76-3.75h1.77l3.75,3.75h8.98l-3.75-3.75h1.89l3.75,3.75h9.14l-3.75-3.75h1.77l3.75,3.75h8.97l-3.75-3.75h119.61l3.76,3.75h9.14l-3.76-3.75h1.77l3.76,3.75h8.97l-3.75-3.75h3.1l20.26,20.26v3.11C3366.89,59.134,3365.64,57.874,3364.39,56.624Z"
         fill="#0b282d"
         id="path70" />
      <text
         transform="translate(3037.568 52.791)"
         fill="#f4f4f4"
         font-size="18"
         font-family="Montserrat-Regular, Montserrat"
         id="text92"><tspan
           x="0"
           y="17"
           id="tspan72">2D Pre-Alpha Turn-Based </tspan><tspan
           x="0"
           y="44"
           id="tspan74">CHRONOFi Games </tspan><tspan
           x="0"
           y="71"
           id="tspan76">Community Growth &amp; Global Event </tspan><tspan
           x="0"
           y="98"
           id="tspan78">Airdrop </tspan><tspan
           x="0"
           y="125"
           xml:space="preserve"
           id="tspan80">     #1</tspan><tspan
           x="0"
           y="152"
           xml:space="preserve"
           id="tspan82">     #2</tspan><tspan
           x="0"
           y="179"
           xml:space="preserve"
           id="tspan84">     #3</tspan><tspan
           x="0"
           y="206"
           id="tspan86">Sticker &amp; Meme Contest </tspan><tspan
           x="0"
           y="233"
           id="tspan88">Smart Contract Audit </tspan><tspan
           x="0"
           y="260"
           id="tspan90">Website v2 release </tspan></text>
      <text
         transform="translate(3012.016 51.51)"
         fill="#f4f4f4"
         font-size="18"
         font-family="SegoeUI, Segoe UI"
         id="text118"><tspan
           x="0"
           y="19"
           id="tspan94">a</tspan><tspan
           x="0"
           y="46"
           id="tspan96">a</tspan><tspan
           x="0"
           y="73"
           id="tspan98">a</tspan><tspan
           x="0"
           y="100"
           id="tspan100">a</tspan><tspan
           x="0"
           y="127"
           xml:space="preserve"
           id="tspan102">    o</tspan><tspan
           x="0"
           y="154"
           xml:space="preserve"
           id="tspan104">    o</tspan><tspan
           x="0"
           y="181"
           xml:space="preserve"
           id="tspan106">    o</tspan><tspan
           x="0"
           y="208"
           id="tspan108">a</tspan><tspan
           x="0"
           y="235"
           id="tspan110">a</tspan><tspan
           x="0"
           y="262"
           id="tspan112">a</tspan><tspan
           font-family="OmnicSans-Regular"
           id="tspan116"><tspan
             x="0"
             y="289"
             id="tspan114" /></tspan></text>
    </g>
    <path
       d="M3401.6,754.936v338.218h304.549c.58-.59,1.17-1.17,1.75-1.75q40.38-40.38,80.75-80.76V754.936Zm385.3,25.12c-1.25-1.25-2.5-2.51-3.75-3.76v8.98l3.75,3.75v1.77l-3.75-3.75v9.14l3.75,3.75v209.9q-40.77,40.785-81.56,81.57H3587.157l-3.79-3.8h-9.15l3.8,3.8h-1.77l-3.79-3.8h-8.98l3.8,3.8h-1.89l-3.8-3.8h-9.14l3.8,3.8h-1.77l-3.8-3.8h-8.97l3.8,3.8h-98.87l-3.8-3.8h-9.14l3.8,3.8h-1.77l-3.8-3.8h-8.97l3.8,3.8h-2.29l-21.12-21.12v-2.29l3.75,3.75v-8.98l-3.75-3.74v-1.77l3.75,3.74V890.336l-3.75-3.75V776.906l20.22-20.22h158.81l3.75,3.75h9.15l-3.76-3.75h1.77l3.75,3.75h8.98l-3.75-3.75h1.89l3.75,3.75h9.14l-3.75-3.75h1.77l3.75,3.75h8.97l-3.75-3.75h119.609l3.76,3.75h9.14l-3.76-3.75h1.77l3.76,3.75h8.97l-3.75-3.75h3.1l20.26,20.26Z"
       transform="translate(1321.447 6272.109)"
       fill="#00b3eb"
       id="path122" />
    <path
       d="M3783.146,776.3v8.98l3.75,3.75v1.77l-3.75-3.75v9.14l3.75,3.75v209.9q-40.77,40.785-81.56,81.57H3587.157l-3.79-3.8h-9.15l3.8,3.8h-1.77l-3.79-3.8h-8.98l3.8,3.8h-1.89l-3.8-3.8h-9.14l3.8,3.8h-1.77l-3.8-3.8h-8.97l3.8,3.8h-98.87l-3.8-3.8h-9.14l3.8,3.8h-1.77l-3.8-3.8h-8.97l3.8,3.8h-2.29l-21.12-21.12v-2.29l3.75,3.75v-8.98l-3.75-3.74v-1.77l3.75,3.74V890.336l-3.75-3.75V776.906l20.22-20.22h158.81l3.75,3.75h9.15l-3.76-3.75h1.77l3.75,3.75h8.98l-3.75-3.75h1.89l3.75,3.75h9.14l-3.75-3.75h1.77l3.75,3.75h8.97l-3.75-3.75h119.609l3.76,3.75h9.14l-3.76-3.75h1.77l3.76,3.75h8.97l-3.75-3.75h3.1l20.26,20.26v3.11C3785.646,778.806,3784.4,777.546,3783.146,776.3Z"
       transform="translate(1321.447 6272.109)"
       fill="#0b282d"
       id="path124" />
    <text
       transform="translate(4777.771 7044.572)"
       fill="#f4f4f4"
       font-size="18"
       font-family="Montserrat-Regular, Montserrat"
       id="text148"><tspan
         x="0"
         y="17"
         id="tspan126">Team Expansion</tspan><tspan
         x="0"
         y="44"
         id="tspan128">Release the Beta Game with the </tspan><tspan
         x="0"
         y="71"
         id="tspan130">Campaign Quests</tspan><tspan
         x="0"
         y="98"
         id="tspan132">Release the Function build GUILD</tspan><tspan
         x="0"
         y="125"
         id="tspan134">Release the Party PvE Guild Mode</tspan><tspan
         x="0"
         y="152"
         id="tspan136">Release New Skins &amp; Skills</tspan><tspan
         x="0"
         y="179"
         id="tspan138">Release Function PvP Mode &amp; Chat </tspan><tspan
         x="0"
         y="206"
         id="tspan140">System</tspan><tspan
         x="0"
         y="233"
         id="tspan142">Release New Skins and Skills</tspan><tspan
         x="0"
         y="260"
         id="tspan144">Cross-Chain with Binance Smart </tspan><tspan
         x="0"
         y="287"
         id="tspan146">Chain</tspan></text>
    <text
       transform="translate(4752.22 7043.291)"
       fill="#f4f4f4"
       font-size="18"
       font-family="SegoeUI, Segoe UI"
       id="text174"><tspan
         x="0"
         y="19"
         id="tspan150">a</tspan><tspan
         x="0"
         y="46"
         id="tspan152">a</tspan><tspan
         x="0"
         y="73"
         id="tspan154">a</tspan><tspan
         x="0"
         y="100"
         id="tspan156">a</tspan><tspan
         x="0"
         y="127"
         id="tspan158">a</tspan><tspan
         x="0"
         y="154"
         id="tspan160">a</tspan><tspan
         x="0"
         y="181"
         id="tspan162">a</tspan><tspan
         x="0"
         y="208"
         id="tspan164" /><tspan
         x="0"
         y="235"
         id="tspan166">a</tspan><tspan
         x="0"
         y="262"
         id="tspan168">a</tspan><tspan
         font-family="OmnicSans-Regular"
         id="tspan172"><tspan
           x="0"
           y="289"
           id="tspan170" /></tspan></text>
    <path
       d="M2982.84,754.936V974.477h304.55c.58-.59,1.17-1.17,1.75-1.75q40.38-40.38,80.75-80.76V754.936Zm385.3,25.12c-1.25-1.25-2.5-2.51-3.75-3.76v8.98l3.75,3.75v1.77l-3.75-3.75v9.14l3.75,3.75v91.221q-40.77,40.785-81.56,81.57H3168.4l-3.79-3.8h-9.15l3.8,3.8h-1.77l-3.79-3.8h-8.98l3.8,3.8h-1.89l-3.8-3.8h-9.14l3.8,3.8h-1.77l-3.8-3.8h-8.97l3.8,3.8h-98.87l-3.8-3.8h-9.14l3.8,3.8h-1.77l-3.8-3.8h-8.97l3.8,3.8h-2.29l-21.12-21.12v-2.29l3.75,3.75v-8.98l-3.75-3.74v-1.77l3.75,3.74V890.336l-3.75-3.75V776.906l20.22-20.22h158.81l3.75,3.75h9.15l-3.76-3.75h1.77l3.75,3.75h8.98l-3.75-3.75h1.89l3.75,3.75h9.14l-3.75-3.75h1.77l3.75,3.75h8.97l-3.75-3.75h119.61l3.76,3.75h9.14l-3.76-3.75h1.77l3.76,3.75h8.97l-3.75-3.75h3.1l20.26,20.26Z"
       transform="translate(1321.447 6272.109)"
       fill="#00b3eb"
       id="path176" />
    <path
       d="M3364.39,776.3v8.98l3.75,3.75v1.77l-3.75-3.75v9.14l3.75,3.75v91.221q-40.77,40.785-81.56,81.57H3168.4l-3.79-3.8h-9.15l3.8,3.8h-1.77l-3.79-3.8h-8.98l3.8,3.8h-1.89l-3.8-3.8h-9.14l3.8,3.8h-1.77l-3.8-3.8h-8.97l3.8,3.8h-98.87l-3.8-3.8h-9.14l3.8,3.8h-1.77l-3.8-3.8h-8.97l3.8,3.8h-2.29l-21.12-21.12v-2.29l3.75,3.75v-8.98l-3.75-3.74v-1.77l3.75,3.74V890.336l-3.75-3.75V776.906l20.22-20.22h158.81l3.75,3.75h9.15l-3.76-3.75h1.77l3.75,3.75h8.98l-3.75-3.75h1.89l3.75,3.75h9.14l-3.75-3.75h1.77l3.75,3.75h8.97l-3.75-3.75h119.61l3.76,3.75h9.14l-3.76-3.75h1.77l3.76,3.75h8.97l-3.75-3.75h3.1l20.26,20.26v3.11C3366.89,778.806,3365.64,777.546,3364.39,776.3Z"
       transform="translate(1321.447 6272.109)"
       fill="#0b282d"
       id="path178" />
    <text
       transform="translate(4359.015 7044.572)"
       fill="#f4f4f4"
       font-size="18"
       font-family="Montserrat-Regular, Montserrat"
       id="text194"><tspan
         x="0"
         y="17"
         id="tspan180">Team Expansion</tspan><tspan
         x="0"
         y="44"
         id="tspan182">Metaverse NFT Marketplace </tspan><tspan
         x="0"
         y="71"
         id="tspan184">Development</tspan><tspan
         x="0"
         y="98"
         id="tspan186">Release Official Game</tspan><tspan
         x="0"
         y="125"
         id="tspan188">Game Version Upgrade</tspan><tspan
         x="0"
         y="152"
         id="tspan190">Release the Tournament </tspan><tspan
         x="0"
         y="179"
         id="tspan192">Event</tspan></text>
    <text
       transform="translate(4333.463 7043.291)"
       fill="#f4f4f4"
       font-size="18"
       font-family="SegoeUI, Segoe UI"
       id="text208"><tspan
         x="0"
         y="19"
         id="tspan196">a</tspan><tspan
         x="0"
         y="46"
         id="tspan198">a</tspan><tspan
         x="0"
         y="73"
         id="tspan200">a</tspan><tspan
         x="0"
         y="100"
         id="tspan202">a</tspan><tspan
         x="0"
         y="127"
         id="tspan204">a</tspan><tspan
         x="0"
         y="154"
         id="tspan206">a</tspan></text>
    <path
       d="M2562.553,754.936V974.477H2867.1c.58-.59,1.17-1.17,1.75-1.75q40.38-40.38,80.75-80.76V754.936Zm385.3,25.12c-1.25-1.25-2.5-2.51-3.75-3.76v8.98l3.75,3.75v1.77l-3.75-3.75v9.14l3.75,3.75v91.221q-40.77,40.785-81.56,81.57h-118.18l-3.79-3.8h-9.15l3.8,3.8h-1.77l-3.79-3.8h-8.98l3.8,3.8h-1.89l-3.8-3.8h-9.14l3.8,3.8h-1.77l-3.8-3.8h-8.97l3.8,3.8h-98.87l-3.8-3.8h-9.14l3.8,3.8h-1.77l-3.8-3.8h-8.97l3.8,3.8h-2.29l-21.12-21.12v-2.29l3.75,3.75v-8.98l-3.75-3.74v-1.77l3.75,3.74V890.336l-3.75-3.75V776.906l20.22-20.22h158.81l3.75,3.75h9.15l-3.76-3.75h1.77l3.75,3.75h8.98l-3.75-3.75h1.89l3.75,3.75H2778l-3.75-3.75h1.77l3.75,3.75h8.97l-3.75-3.75H2904.6l3.76,3.75h9.14l-3.76-3.75h1.77l3.76,3.75h8.97l-3.75-3.75h3.1l20.26,20.26Z"
       transform="translate(1321.447 6272.109)"
       fill="#00b3eb"
       id="path210" />
    <path
       d="M2944.1,776.3v8.98l3.75,3.75v1.77l-3.75-3.75v9.14l3.75,3.75v91.221q-40.77,40.785-81.56,81.57h-118.18l-3.79-3.8h-9.15l3.8,3.8h-1.77l-3.79-3.8h-8.98l3.8,3.8h-1.89l-3.8-3.8h-9.14l3.8,3.8h-1.77l-3.8-3.8h-8.97l3.8,3.8h-98.87l-3.8-3.8h-9.14l3.8,3.8h-1.77l-3.8-3.8h-8.97l3.8,3.8h-2.29l-21.12-21.12v-2.29l3.75,3.75v-8.98l-3.75-3.74v-1.77l3.75,3.74V890.336l-3.75-3.75V776.906l20.22-20.22h158.81l3.75,3.75h9.15l-3.76-3.75h1.77l3.75,3.75h8.98l-3.75-3.75h1.89l3.75,3.75H2778l-3.75-3.75h1.77l3.75,3.75h8.97l-3.75-3.75H2904.6l3.76,3.75h9.14l-3.76-3.75h1.77l3.76,3.75h8.97l-3.75-3.75h3.1l20.26,20.26v3.11C2946.6,778.806,2945.353,777.546,2944.1,776.3Z"
       transform="translate(1321.447 6272.109)"
       fill="#0b282d"
       id="path212" />
    <text
       fill="#f4f4f4"
       font-size="18px"
       font-family="Montserrat-Regular, Montserrat"
       id="text220"
       x="3938.728"
       y="7050.5718"><tspan
         x="3938.728"
         y="7067.5718"
         id="tspan214">Release Metaverse NFT</tspan><tspan
         x="3938.728"
         y="7094.5718"
         id="tspan216">Marketplace</tspan><tspan
         x="3938.728"
         y="7121.5718"
         id="tspan218">Marketing Campaign</tspan></text>
    <text
       fill="#f4f4f4"
       font-size="18px"
       font-family="SegoeUI, 'Segoe UI'"
       id="text232"
       x="3913.176"
       y="7047.291"><tspan
         x="3913.176"
         y="7066.291"
         id="tspan222">a</tspan><tspan
         x="3913.176"
         y="7093.291"
         id="tspan224">a</tspan><tspan
         x="3913.176"
         y="7120.291"
         id="tspan226">a</tspan><tspan
         font-family="OmnicSans-Regular"
         id="tspan230"><tspan
           x="3913.176"
           y="7147.291"
           id="tspan228" /></tspan></text>
    <path
       d="M3401.276,35.264l.641,492.124H3706a1.112,1.112,0,0,0,.788-.329c.474-.477.953-.949,1.425-1.421q40.217-40.217,80.423-80.433a1.115,1.115,0,0,0,.326-.789l-.642-409.152Zm385.3,25.12c-1.25-1.25-2.5-2.51-3.75-3.76V65.6l3.75,3.75v1.77l-3.75-3.75v9.14l3.75,3.75.642,363.342a1.115,1.115,0,0,1-.326.789q-40.445,40.458-80.907,80.917a1.112,1.112,0,0,1-.787.326H3587.94a1.11,1.11,0,0,1-.788-.327l-3.138-3.146a1.112,1.112,0,0,0-.788-.327h-6a1.113,1.113,0,0,0-.787,1.9l1.9,1.9h-1.308a1.11,1.11,0,0,1-.788-.327l-3.138-3.146a1.112,1.112,0,0,0-.788-.327h-5.831a1.113,1.113,0,0,0-.787,1.9l1.9,1.9h-1.429a1.112,1.112,0,0,1-.787-.326l-3.148-3.148a1.117,1.117,0,0,0-.787-.326h-5.992a1.113,1.113,0,0,0-.787,1.9l1.9,1.9h-1.309a1.113,1.113,0,0,1-.787-.326l-3.148-3.148a1.117,1.117,0,0,0-.787-.326h-5.822a1.113,1.113,0,0,0-.787,1.9h0a1.113,1.113,0,0,1-.787,1.9h-95.722a1.112,1.112,0,0,1-.787-.326l-3.148-3.148a1.117,1.117,0,0,0-.787-.326h-5.992a1.113,1.113,0,0,0-.787,1.9l1.9,1.9h-1.309a1.113,1.113,0,0,1-.787-.326l-3.148-3.148a1.117,1.117,0,0,0-.787-.326h-5.822a1.113,1.113,0,0,0-.787,1.9l1.9,1.9h-1.829a1.113,1.113,0,0,1-.787-.326l-20.468-20.468a1.111,1.111,0,0,1-.326-.787v-1.829l1.655,1.655a1.113,1.113,0,0,0,1.9-.861l-.445-6.666-3.75-3.74v-1.77l3.75,3.74V170.664l-3.75-3.75V57.234l20.22-20.22h158.81l3.75,3.75h9.15l-3.76-3.75h1.77l3.75,3.75h8.98l-3.75-3.75h1.89l3.75,3.75h9.14l-3.75-3.75h1.77l3.75,3.75h8.97l-3.75-3.75h119.609l3.76,3.75h9.14l-3.76-3.75h1.77l3.76,3.75h8.97l-3.75-3.75h3.1l20.26,20.26Z"
       transform="translate(1321.447 6212.109)"
       fill="#00b3eb"
       id="path234" />
    <path
       d="M3782.825,56.624V65.6l3.75,3.75v1.77l-3.75-3.75v9.14l3.75,3.75.642,363.342a1.115,1.115,0,0,1-.326.789q-40.445,40.458-80.907,80.917a1.112,1.112,0,0,1-.787.326H3587.94a1.11,1.11,0,0,1-.788-.327l-3.138-3.146a1.112,1.112,0,0,0-.788-.327h-6a1.113,1.113,0,0,0-.787,1.9l1.9,1.9h-1.308a1.11,1.11,0,0,1-.788-.327l-3.138-3.146a1.112,1.112,0,0,0-.788-.327h-5.831a1.113,1.113,0,0,0-.787,1.9l1.9,1.9h-1.429a1.112,1.112,0,0,1-.787-.326l-3.148-3.148a1.117,1.117,0,0,0-.787-.326h-5.992a1.113,1.113,0,0,0-.787,1.9l1.9,1.9h-1.309a1.113,1.113,0,0,1-.787-.326l-3.148-3.148a1.117,1.117,0,0,0-.787-.326h-5.822a1.113,1.113,0,0,0-.787,1.9h0a1.113,1.113,0,0,1-.787,1.9h-95.722a1.112,1.112,0,0,1-.787-.326l-3.148-3.148a1.117,1.117,0,0,0-.787-.326h-5.992a1.113,1.113,0,0,0-.787,1.9l1.9,1.9h-1.309a1.113,1.113,0,0,1-.787-.326l-3.148-3.148a1.117,1.117,0,0,0-.787-.326h-5.822a1.113,1.113,0,0,0-.787,1.9l1.9,1.9h-1.829a1.113,1.113,0,0,1-.787-.326l-20.468-20.468a1.111,1.111,0,0,1-.326-.787v-1.829l1.655,1.655a1.113,1.113,0,0,0,1.9-.861l-.445-6.666-3.75-3.74v-1.77l3.75,3.74V170.664l-3.75-3.75V57.234l20.22-20.22h158.81l3.75,3.75h9.15l-3.76-3.75h1.77l3.75,3.75h8.98l-3.75-3.75h1.89l3.75,3.75h9.14l-3.75-3.75h1.77l3.75,3.75h8.97l-3.75-3.75h119.609l3.76,3.75h9.14l-3.76-3.75h1.77l3.76,3.75h8.97l-3.75-3.75h3.1l20.26,20.26v3.11C3785.325,59.134,3784.075,57.874,3782.825,56.624Z"
       transform="translate(1321.447 6212.109)"
       fill="#0b282d"
       id="path236" />
    <text
       transform="translate(4778.093 6265.542)"
       fill="#f4f4f4"
       font-size="18"
       font-family="Montserrat-Regular, Montserrat"
       id="text272"><tspan
         x="0"
         y="17"
         id="tspan238">Rebranding CHRONOFi to EARTH </tspan><tspan
         x="0"
         y="44"
         id="tspan240">OBLIVION </tspan><tspan
         x="0"
         y="71"
         id="tspan242">Create Game Design Document </tspan><tspan
         x="0"
         y="98"
         id="tspan244">Develop a Prototype for the Game </tspan><tspan
         x="0"
         y="125"
         id="tspan246">Release the Landing Page </tspan><tspan
         x="0"
         y="152"
         id="tspan248">Release Whitepaper </tspan><tspan
         x="0"
         y="179"
         id="tspan250">Release Character Skins </tspan><tspan
         x="0"
         y="206"
         id="tspan252">Token Sale Plan </tspan><tspan
         x="0"
         y="233"
         xml:space="preserve"
         id="tspan254">    Seed Sale Round </tspan><tspan
         x="0"
         y="260"
         xml:space="preserve"
         id="tspan256">    Private Sale Round </tspan><tspan
         x="0"
         y="287"
         id="tspan258">Release Trailer </tspan><tspan
         x="0"
         y="314"
         id="tspan260">Release the Alpha Game on </tspan><tspan
         x="0"
         y="341"
         id="tspan262">Desktop/PC </tspan><tspan
         x="0"
         y="368"
         id="tspan264">Audit Smart Contract </tspan><tspan
         x="0"
         y="395"
         id="tspan266">Token Sale Plan </tspan><tspan
         x="0"
         y="422"
         xml:space="preserve"
         id="tspan268">    IDO </tspan><tspan
         x="0"
         y="449"
         id="tspan270">TGE</tspan></text>
    <text
       transform="translate(4751.898 6263.619)"
       fill="#f4f4f4"
       font-size="18"
       font-family="SegoeUI, Segoe UI"
       id="text308"><tspan
         x="0"
         y="19"
         id="tspan274">a</tspan><tspan
         x="0"
         y="46"
         id="tspan276" /><tspan
         x="0"
         y="73"
         id="tspan278">a</tspan><tspan
         x="0"
         y="100"
         id="tspan280">a</tspan><tspan
         x="0"
         y="127"
         id="tspan282">a</tspan><tspan
         x="0"
         y="154"
         id="tspan284">a</tspan><tspan
         x="0"
         y="181"
         id="tspan286">a</tspan><tspan
         x="0"
         y="208"
         id="tspan288">a</tspan><tspan
         x="0"
         y="235"
         xml:space="preserve"
         id="tspan290">    o</tspan><tspan
         x="0"
         y="262"
         xml:space="preserve"
         id="tspan292">    o</tspan><tspan
         x="0"
         y="289"
         id="tspan294">a</tspan><tspan
         x="0"
         y="316"
         id="tspan296">a</tspan><tspan
         x="0"
         y="343"
         id="tspan298">a</tspan><tspan
         x="0"
         y="370"
         id="tspan300">a</tspan><tspan
         x="0"
         y="397"
         id="tspan302">a</tspan><tspan
         x="0"
         y="424"
         xml:space="preserve"
         id="tspan304">    o</tspan><tspan
         x="0"
         y="451"
         id="tspan306">a</tspan></text>
    <g
       transform="translate(1321.447 6212.109)"
       id="g344">
      <path
         d="M2836.2-156.27c1.629-1.053,3.268-2.089,4.909-3.123a95.4,95.4,0,0,0-62.795-43.858q-.92,2.795-1.8,5.587A89.57,89.57,0,0,1,2836.2-156.27Z"
         fill="#00b3eb"
         id="path310" />
      <path
         d="M2832.878-58.411c1.32,1.488,2.637,2.979,3.935,4.488a94.634,94.634,0,0,0,18.273-55.979,93.914,93.914,0,0,0-.876-12.626c-1.914.307-3.827.622-5.747.873a87.634,87.634,0,0,1,.811,11.753A88.83,88.83,0,0,1,2832.878-58.411Z"
         fill="#00b3eb"
         id="path312" />
      <path
         d="M2713.523-186.159a88.707,88.707,0,0,1,28.673-11.265q-.765-2.815-1.515-5.635a94.317,94.317,0,0,0-30.338,12.045C2711.4-189.394,2712.449-187.768,2713.523-186.159Z"
         fill="#00b3eb"
         id="path314" />
      <path
         d="M2679.116-160.082a94.479,94.479,0,0,0-14.362,50.18c0,.024,0,.047,0,.071,1.944-.62,3.9-1.216,5.848-1.813a88.688,88.688,0,0,1,13.9-46.045Q2681.826-158.917,2679.116-160.082Z"
         fill="#00b3eb"
         id="path316" />
      <path
         d="M2670.947-76.231a95.408,95.408,0,0,0,21.882,33.693q1.987-2.124,3.964-4.26a89.659,89.659,0,0,1-20.22-30.972C2674.69-77.287,2672.82-76.752,2670.947-76.231Z"
         fill="#00b3eb"
         id="path318" />
      <path
         d="M2816.206-40.611a88.858,88.858,0,0,1-56.286,20.063,89.025,89.025,0,0,1-27.051-4.2q-.984,2.731-1.945,5.476a94.8,94.8,0,0,0,29,4.532,94.632,94.632,0,0,0,59.771-21.224Q2817.972-38.306,2816.206-40.611Z"
         fill="#00b3eb"
         id="path320" />
      <path
         d="M2760.72-30.3a78.785,78.785,0,0,1-78.7-78.7,78.786,78.786,0,0,1,78.7-78.7,78.318,78.318,0,0,1,54.83,22.348c1.1-1.313,2.209-2.615,3.321-3.916a83.428,83.428,0,0,0-58.151-23.551,83.91,83.91,0,0,0-83.815,83.815,83.91,83.91,0,0,0,83.815,83.815A83.935,83.935,0,0,0,2842.935-92.8q-2.462-.81-4.921-1.583A78.8,78.8,0,0,1,2760.72-30.3Z"
         fill="#00b3eb"
         id="path322" />
      <path
         d="M2693.155-113.54a67.17,67.17,0,0,1,19.5-42.712,66.072,66.072,0,0,1,15.985-11.731c-.595-1.34-1.222-2.667-1.826-4a70.37,70.37,0,0,0-17.264,12.628,71.542,71.542,0,0,0-20.794,45.91C2690.226-113.482,2691.691-113.51,2693.155-113.54Z"
         fill="#00b3eb"
         id="path324" />
      <path
         d="M2798.433-52.747a67.583,67.583,0,0,1-83.442-5.886c-1.082.995-2.2,1.958-3.293,2.935a71.986,71.986,0,0,0,88.76,6.9Q2799.456-50.786,2798.433-52.747Z"
         fill="#00b3eb"
         id="path326" />
      <path
         d="M2811.255-159.358a71.5,71.5,0,0,0-43.216-20.591v4.433a67.1,67.1,0,0,1,40.111,19.264,67.189,67.189,0,0,1,19.706,46.823c1.463-.13,2.927-.246,4.392-.36A71.588,71.588,0,0,0,2811.255-159.358Z"
         fill="#00b3eb"
         id="path328" />
      <path
         d="M2791.708-159.9q-.812,1.673-1.619,3.35a56.629,56.629,0,0,1,25.852,43.606h3.69A60.338,60.338,0,0,0,2791.708-159.9Z"
         fill="#00b3eb"
         id="path330" />
      <path
         d="M2814.432-95.536a56.946,56.946,0,0,1-31.569,38.126q.492,1.816.978,3.634a60.67,60.67,0,0,0,34.4-41.76Z"
         fill="#00b3eb"
         id="path332" />
      <path
         d="M2736.145-57.257a56.865,56.865,0,0,1-32.406-40.476q-1.79.486-3.581.962a60.584,60.584,0,0,0,34.6,42.943C2735.221-54.971,2735.679-56.115,2736.145-57.257Z"
         fill="#00b3eb"
         id="path334" />
      <path
         d="M2743.942-167.361a60.551,60.551,0,0,0-43.906,46.683q1.776.585,3.55,1.142a56.857,56.857,0,0,1,41.422-44.3Q2744.474-165.6,2743.942-167.361Z"
         fill="#00b3eb"
         id="path336" />
      <text
         transform="translate(2759.92 -113.476)"
         fill="#fff"
         font-size="24"
         font-family="SegoeUI, Segoe UI"
         id="text342"><tspan
           x="-18.803"
           y="0"
           id="tspan338">Q4 </tspan><tspan
           x="-25.875"
           y="27"
           id="tspan340">2021</tspan></text>
    </g>
    <g
       transform="translate(1321.447 6212.109)"
       id="g380">
      <path
         d="M3252.642-158.127q2.443-1.579,4.909-3.124a95.4,95.4,0,0,0-62.795-43.858q-.92,2.794-1.8,5.588A89.57,89.57,0,0,1,3252.642-158.127Z"
         fill="#00b3eb"
         id="path346" />
      <path
         d="M3249.323-60.268c1.32,1.488,2.638,2.979,3.936,4.487a94.637,94.637,0,0,0,18.272-55.978,93.9,93.9,0,0,0-.876-12.626c-1.914.307-3.827.622-5.747.873a87.634,87.634,0,0,1,.811,11.753A88.833,88.833,0,0,1,3249.323-60.268Z"
         fill="#00b3eb"
         id="path348" />
      <path
         d="M3129.968-188.017a88.705,88.705,0,0,1,28.673-11.264q-.765-2.817-1.515-5.636a94.354,94.354,0,0,0-30.337,12.045C3127.845-191.251,3128.894-189.626,3129.968-188.017Z"
         fill="#00b3eb"
         id="path350" />
      <path
         d="M3095.561-161.94a94.482,94.482,0,0,0-14.362,50.181c0,.023,0,.047,0,.071,1.944-.621,3.9-1.216,5.848-1.814a88.7,88.7,0,0,1,13.9-46.045Q3098.271-160.774,3095.561-161.94Z"
         fill="#00b3eb"
         id="path352" />
      <path
         d="M3087.392-78.089A95.4,95.4,0,0,0,3109.274-44.4q1.989-2.124,3.964-4.26a89.643,89.643,0,0,1-20.219-30.972C3091.135-79.144,3089.265-78.61,3087.392-78.089Z"
         fill="#00b3eb"
         id="path354" />
      <path
         d="M3232.651-42.468a88.856,88.856,0,0,1-56.286,20.063,89,89,0,0,1-27.051-4.2q-.984,2.733-1.945,5.476a94.777,94.777,0,0,0,29,4.532,94.637,94.637,0,0,0,59.771-21.223Q3234.417-40.164,3232.651-42.468Z"
         fill="#00b3eb"
         id="path356" />
      <path
         d="M3177.165-32.154a78.785,78.785,0,0,1-78.7-78.7,78.785,78.785,0,0,1,78.7-78.7A78.311,78.311,0,0,1,3232-167.2c1.1-1.313,2.209-2.615,3.321-3.917a83.431,83.431,0,0,0-58.151-23.55,83.909,83.909,0,0,0-83.815,83.814,83.909,83.909,0,0,0,83.815,83.815,83.935,83.935,0,0,0,82.215-67.617q-2.461-.81-4.921-1.583A78.8,78.8,0,0,1,3177.165-32.154Z"
         fill="#00b3eb"
         id="path358" />
      <path
         d="M3109.6-115.4a67.172,67.172,0,0,1,19.5-42.713,66.125,66.125,0,0,1,15.985-11.731c-.595-1.34-1.222-2.666-1.826-4A70.388,70.388,0,0,0,3126-161.215a71.538,71.538,0,0,0-20.794,45.91Q3107.4-115.356,3109.6-115.4Z"
         fill="#00b3eb"
         id="path360" />
      <path
         d="M3214.878-54.6a67.584,67.584,0,0,1-83.442-5.885c-1.082.994-2.2,1.957-3.293,2.935a71.986,71.986,0,0,0,88.76,6.9Q3215.9-52.643,3214.878-54.6Z"
         fill="#00b3eb"
         id="path362" />
      <path
         d="M3227.7-161.215a71.506,71.506,0,0,0-43.217-20.592v4.433a67.1,67.1,0,0,1,40.111,19.264,67.188,67.188,0,0,1,19.706,46.824c1.463-.13,2.927-.246,4.392-.361A71.587,71.587,0,0,0,3227.7-161.215Z"
         fill="#00b3eb"
         id="path364" />
      <path
         d="M3208.154-161.763c-.542,1.116-1.079,2.234-1.62,3.35a56.631,56.631,0,0,1,25.852,43.606h3.691A60.342,60.342,0,0,0,3208.154-161.763Z"
         fill="#00b3eb"
         id="path366" />
      <path
         d="M3230.877-97.393a56.944,56.944,0,0,1-31.569,38.126q.492,1.815.978,3.634a60.67,60.67,0,0,0,34.4-41.76Z"
         fill="#00b3eb"
         id="path368" />
      <path
         d="M3152.59-59.114a56.869,56.869,0,0,1-32.406-40.476q-1.79.484-3.58.962a60.583,60.583,0,0,0,34.6,42.942C3151.666-56.828,3152.124-57.973,3152.59-59.114Z"
         fill="#00b3eb"
         id="path370" />
      <path
         d="M3160.387-169.219a60.552,60.552,0,0,0-43.905,46.684q1.776.583,3.55,1.142a56.855,56.855,0,0,1,41.421-44.3Q3160.919-167.457,3160.387-169.219Z"
         fill="#00b3eb"
         id="path372" />
      <text
         transform="translate(3176.365 -115.333)"
         fill="#fff"
         font-size="24"
         font-family="SegoeUI, Segoe UI"
         id="text378"><tspan
           x="-18.803"
           y="0"
           id="tspan374">Q1 </tspan><tspan
           x="-25.875"
           y="27"
           id="tspan376">2022</tspan></text>
    </g>
    <rect
       width="1.648"
       height="784.547"
       transform="translate(5165.854 6102.296)"
       fill="#00b3eb"
       id="rect382" />
    <g
       transform="translate(1321.447 6212.109)"
       id="g418">
      <path
         d="M3671.4-156.27c1.63-1.053,3.269-2.089,4.91-3.123a95.4,95.4,0,0,0-62.8-43.858q-.92,2.795-1.8,5.587A89.57,89.57,0,0,1,3671.4-156.27Z"
         fill="#00b3eb"
         id="path384" />
      <path
         d="M3668.079-58.411c1.321,1.488,2.638,2.979,3.936,4.488a94.64,94.64,0,0,0,18.272-55.979,93.955,93.955,0,0,0-.875-12.626c-1.914.307-3.828.622-5.747.873a87.8,87.8,0,0,1,.811,11.753A88.824,88.824,0,0,1,3668.079-58.411Z"
         fill="#00b3eb"
         id="path386" />
      <path
         d="M3548.724-186.159a88.712,88.712,0,0,1,28.673-11.265q-.765-2.815-1.515-5.635a94.322,94.322,0,0,0-30.337,12.045C3546.6-189.394,3547.65-187.768,3548.724-186.159Z"
         fill="#00b3eb"
         id="path388" />
      <path
         d="M3514.317-160.082a94.489,94.489,0,0,0-14.361,50.18c0,.024,0,.047,0,.071,1.945-.62,3.9-1.216,5.849-1.813a88.692,88.692,0,0,1,13.894-46.045Q3517.026-158.917,3514.317-160.082Z"
         fill="#00b3eb"
         id="path390" />
      <path
         d="M3506.148-76.231a95.438,95.438,0,0,0,21.882,33.693q1.989-2.124,3.965-4.26a89.66,89.66,0,0,1-20.22-30.972C3509.891-77.287,3508.021-76.752,3506.148-76.231Z"
         fill="#00b3eb"
         id="path392" />
      <path
         d="M3651.408-40.611a88.86,88.86,0,0,1-56.286,20.063,89.026,89.026,0,0,1-27.052-4.2q-.984,2.731-1.944,5.476a94.8,94.8,0,0,0,29,4.532,94.629,94.629,0,0,0,59.77-21.224Q3653.173-38.306,3651.408-40.611Z"
         fill="#00b3eb"
         id="path394" />
      <path
         d="M3595.921-30.3a78.785,78.785,0,0,1-78.7-78.7,78.785,78.785,0,0,1,78.7-78.7,78.313,78.313,0,0,1,54.83,22.348q1.649-1.97,3.322-3.916a83.43,83.43,0,0,0-58.152-23.551,83.91,83.91,0,0,0-83.815,83.815,83.91,83.91,0,0,0,83.815,83.815A83.934,83.934,0,0,0,3678.136-92.8q-2.461-.81-4.921-1.583A78.8,78.8,0,0,1,3595.921-30.3Z"
         fill="#00b3eb"
         id="path396" />
      <path
         d="M3528.357-113.54a67.165,67.165,0,0,1,19.505-42.712,66.047,66.047,0,0,1,15.984-11.731c-.595-1.34-1.222-2.667-1.825-4a70.351,70.351,0,0,0-17.264,12.628,71.538,71.538,0,0,0-20.8,45.91C3525.427-113.482,3526.892-113.51,3528.357-113.54Z"
         fill="#00b3eb"
         id="path398" />
      <path
         d="M3633.634-52.747a67.583,67.583,0,0,1-83.442-5.886c-1.081.995-2.194,1.958-3.293,2.935a71.986,71.986,0,0,0,88.76,6.9Q3634.657-50.786,3633.634-52.747Z"
         fill="#00b3eb"
         id="path400" />
      <path
         d="M3646.457-159.358a71.5,71.5,0,0,0-43.217-20.591v4.433a67.1,67.1,0,0,1,40.111,19.264,67.192,67.192,0,0,1,19.707,46.823c1.463-.13,2.927-.246,4.391-.36A71.586,71.586,0,0,0,3646.457-159.358Z"
         fill="#00b3eb"
         id="path402" />
      <path
         d="M3626.91-159.9c-.542,1.115-1.079,2.233-1.62,3.35a56.63,56.63,0,0,1,25.852,43.606h3.691A60.34,60.34,0,0,0,3626.91-159.9Z"
         fill="#00b3eb"
         id="path404" />
      <path
         d="M3649.634-95.536a56.948,56.948,0,0,1-31.57,38.126c.329,1.211.652,2.423.979,3.634a60.676,60.676,0,0,0,34.4-41.76Z"
         fill="#00b3eb"
         id="path406" />
      <path
         d="M3571.346-57.257a56.867,56.867,0,0,1-32.405-40.476q-1.789.486-3.581.962a60.585,60.585,0,0,0,34.6,42.943C3570.422-54.971,3570.881-56.115,3571.346-57.257Z"
         fill="#00b3eb"
         id="path408" />
      <path
         d="M3579.143-167.361a60.55,60.55,0,0,0-43.905,46.683q1.776.585,3.55,1.142a56.857,56.857,0,0,1,41.421-44.3Q3579.677-165.6,3579.143-167.361Z"
         fill="#00b3eb"
         id="path410" />
      <text
         transform="translate(3595.122 -113.476)"
         fill="#fff"
         font-size="24"
         font-family="SegoeUI, Segoe UI"
         id="text416"><tspan
           x="-18.803"
           y="0"
           id="tspan412">Q2 </tspan><tspan
           x="-25.875"
           y="27"
           id="tspan414">2022</tspan></text>
    </g>
    <g
       transform="translate(1321.447 6272.109)"
       id="g448">
      <path
         d="M3671.4,563.4c1.63-1.053,3.269-2.089,4.91-3.123a95.4,95.4,0,0,0-62.8-43.858q-.92,2.794-1.8,5.587A89.57,89.57,0,0,1,3671.4,563.4Z"
         fill="#00b3eb"
         id="path420" />
      <path
         d="M3668.079,661.261c1.321,1.489,2.638,2.979,3.936,4.488a94.3,94.3,0,0,0,17.4-68.605c-1.914.307-3.828.622-5.747.873a87.8,87.8,0,0,1,.811,11.753A88.824,88.824,0,0,1,3668.079,661.261Z"
         fill="#00b3eb"
         id="path422" />
      <path
         d="M3548.724,533.513a88.713,88.713,0,0,1,28.673-11.265q-.765-2.816-1.515-5.635a94.322,94.322,0,0,0-30.337,12.045C3546.6,530.279,3547.65,531.9,3548.724,533.513Z"
         fill="#00b3eb"
         id="path424" />
      <path
         d="M3514.317,559.59a94.489,94.489,0,0,0-14.361,50.18c0,.024,0,.047,0,.071,1.945-.62,3.9-1.216,5.849-1.813a88.692,88.692,0,0,1,13.894-46.045Q3517.026,560.756,3514.317,559.59Z"
         fill="#00b3eb"
         id="path426" />
      <path
         d="M3506.148,643.441a95.437,95.437,0,0,0,21.882,33.693q1.989-2.124,3.965-4.26a89.661,89.661,0,0,1-20.22-30.972C3509.891,642.385,3508.021,642.92,3506.148,643.441Z"
         fill="#00b3eb"
         id="path428" />
      <path
         d="M3651.408,679.061a89.081,89.081,0,0,1-83.338,15.867q-.984,2.732-1.944,5.476a94.85,94.85,0,0,0,88.766-16.692Q3653.173,681.366,3651.408,679.061Z"
         fill="#00b3eb"
         id="path430" />
      <path
         d="M3595.921,689.375a78.7,78.7,0,1,1,54.83-135.044q1.649-1.969,3.322-3.916a83.767,83.767,0,1,0,24.063,76.461q-2.461-.81-4.921-1.583A78.8,78.8,0,0,1,3595.921,689.375Z"
         fill="#00b3eb"
         id="path432" />
      <path
         d="M3528.357,606.132a67.166,67.166,0,0,1,19.505-42.712,66.046,66.046,0,0,1,15.984-11.731c-.595-1.34-1.222-2.667-1.825-4a70.351,70.351,0,0,0-17.264,12.628,71.537,71.537,0,0,0-20.8,45.91C3525.427,606.19,3526.892,606.162,3528.357,606.132Z"
         fill="#00b3eb"
         id="path434" />
      <path
         d="M3633.634,666.925a67.583,67.583,0,0,1-83.442-5.886c-1.081.995-2.194,1.958-3.293,2.935a71.986,71.986,0,0,0,88.76,6.9Q3634.657,668.886,3633.634,666.925Z"
         fill="#00b3eb"
         id="path436" />
      <path
         d="M3646.457,560.314a71.5,71.5,0,0,0-43.217-20.591v4.433a67.234,67.234,0,0,1,59.818,66.087c1.463-.13,2.927-.246,4.391-.36A71.586,71.586,0,0,0,3646.457,560.314Z"
         fill="#00b3eb"
         id="path438" />
      <path
         d="M3626.91,559.767c-.542,1.115-1.079,2.233-1.62,3.35a56.63,56.63,0,0,1,25.852,43.606h3.691A60.34,60.34,0,0,0,3626.91,559.767Z"
         fill="#00b3eb"
         id="path440" />
      <path
         d="M3649.634,624.136a56.948,56.948,0,0,1-31.57,38.126c.329,1.211.652,2.423.979,3.634a60.675,60.675,0,0,0,34.4-41.76Z"
         fill="#00b3eb"
         id="path442" />
      <path
         d="M3571.346,662.415a56.867,56.867,0,0,1-32.405-40.476q-1.789.486-3.581.962a60.585,60.585,0,0,0,34.6,42.943C3570.422,664.7,3570.881,663.557,3571.346,662.415Z"
         fill="#00b3eb"
         id="path444" />
      <path
         d="M3579.143,552.311a60.551,60.551,0,0,0-43.905,46.683q1.776.585,3.55,1.142a56.854,56.854,0,0,1,41.421-44.3Q3579.677,554.072,3579.143,552.311Z"
         fill="#00b3eb"
         id="path446" />
    </g>
    <text
       transform="translate(4916.568 6878.305)"
       fill="#fff"
       font-size="24"
       font-family="SegoeUI, Segoe UI"
       id="text454"><tspan
         x="-18.803"
         y="0"
         id="tspan450">Q3 </tspan><tspan
         x="-25.875"
         y="27"
         id="tspan452">2022</tspan></text>
    <g
       transform="translate(1321.447 6272.109)"
       id="g484">
      <path
         d="M3252.642,563.4c1.629-1.053,3.269-2.089,4.909-3.123a95.394,95.394,0,0,0-62.795-43.858q-.92,2.794-1.8,5.587A89.57,89.57,0,0,1,3252.642,563.4Z"
         fill="#00b3eb"
         id="path456" />
      <path
         d="M3249.323,661.261c1.32,1.489,2.638,2.979,3.936,4.488a94.281,94.281,0,0,0,17.4-68.605c-1.914.307-3.827.622-5.747.873a87.633,87.633,0,0,1,.811,11.753A88.83,88.83,0,0,1,3249.323,661.261Z"
         fill="#00b3eb"
         id="path458" />
      <path
         d="M3129.968,533.513a88.708,88.708,0,0,1,28.673-11.265q-.765-2.816-1.515-5.635a94.31,94.31,0,0,0-30.337,12.045C3127.845,530.279,3128.894,531.9,3129.968,533.513Z"
         fill="#00b3eb"
         id="path460" />
      <path
         d="M3095.561,559.59a94.479,94.479,0,0,0-14.362,50.18c0,.024,0,.047,0,.071,1.944-.62,3.9-1.216,5.848-1.813a88.7,88.7,0,0,1,13.9-46.045Q3098.271,560.756,3095.561,559.59Z"
         fill="#00b3eb"
         id="path462" />
      <path
         d="M3087.392,643.441a95.41,95.41,0,0,0,21.882,33.693q1.989-2.124,3.964-4.26a89.643,89.643,0,0,1-20.219-30.972C3091.135,642.385,3089.265,642.92,3087.392,643.441Z"
         fill="#00b3eb"
         id="path464" />
      <path
         d="M3232.651,679.061a89.079,89.079,0,0,1-83.337,15.867q-.984,2.732-1.945,5.476a94.852,94.852,0,0,0,88.767-16.692Q3234.417,681.366,3232.651,679.061Z"
         fill="#00b3eb"
         id="path466" />
      <path
         d="M3177.165,689.375A78.7,78.7,0,1,1,3232,554.331c1.1-1.313,2.209-2.615,3.321-3.916a83.767,83.767,0,1,0,24.064,76.461q-2.461-.81-4.921-1.583A78.8,78.8,0,0,1,3177.165,689.375Z"
         fill="#00b3eb"
         id="path468" />
      <path
         d="M3109.6,606.132a67.168,67.168,0,0,1,19.5-42.712,66.071,66.071,0,0,1,15.985-11.731c-.595-1.34-1.222-2.667-1.826-4A70.388,70.388,0,0,0,3126,560.314a71.542,71.542,0,0,0-20.794,45.91C3106.671,606.19,3108.136,606.162,3109.6,606.132Z"
         fill="#00b3eb"
         id="path470" />
      <path
         d="M3214.878,666.925a67.582,67.582,0,0,1-83.442-5.886c-1.082.995-2.2,1.958-3.293,2.935a71.986,71.986,0,0,0,88.76,6.9Q3215.9,668.886,3214.878,666.925Z"
         fill="#00b3eb"
         id="path472" />
      <path
         d="M3227.7,560.314a71.5,71.5,0,0,0-43.217-20.591v4.433a67.232,67.232,0,0,1,59.817,66.087c1.463-.13,2.927-.246,4.392-.36A71.591,71.591,0,0,0,3227.7,560.314Z"
         fill="#00b3eb"
         id="path474" />
      <path
         d="M3208.154,559.767c-.542,1.115-1.079,2.233-1.62,3.35a56.63,56.63,0,0,1,25.852,43.606h3.691A60.342,60.342,0,0,0,3208.154,559.767Z"
         fill="#00b3eb"
         id="path476" />
      <path
         d="M3230.877,624.136a56.944,56.944,0,0,1-31.569,38.126q.492,1.816.978,3.634a60.669,60.669,0,0,0,34.4-41.76Z"
         fill="#00b3eb"
         id="path478" />
      <path
         d="M3152.59,662.415a56.867,56.867,0,0,1-32.406-40.476q-1.79.486-3.58.962a60.583,60.583,0,0,0,34.6,42.943C3151.666,664.7,3152.124,663.557,3152.59,662.415Z"
         fill="#00b3eb"
         id="path480" />
      <path
         d="M3160.387,552.311a60.551,60.551,0,0,0-43.905,46.683q1.776.585,3.55,1.142a56.854,56.854,0,0,1,41.421-44.3Q3160.919,554.072,3160.387,552.311Z"
         fill="#00b3eb"
         id="path482" />
    </g>
    <text
       transform="translate(4497.813 6878.305)"
       fill="#fff"
       font-size="24"
       font-family="SegoeUI, Segoe UI"
       id="text490"><tspan
         x="-18.803"
         y="0"
         id="tspan486">Q4 </tspan><tspan
         x="-25.875"
         y="27"
         id="tspan488">2022</tspan></text>
    <g
       transform="translate(1321.447 6272.109)"
       id="g520">
      <path
         d="M2836.2,563.4c1.629-1.053,3.268-2.089,4.909-3.123a95.4,95.4,0,0,0-62.795-43.858q-.92,2.794-1.8,5.587A89.57,89.57,0,0,1,2836.2,563.4Z"
         fill="#00b3eb"
         id="path492" />
      <path
         d="M2832.878,661.261c1.32,1.489,2.637,2.979,3.935,4.488a94.277,94.277,0,0,0,17.4-68.605c-1.914.307-3.827.622-5.747.873a87.633,87.633,0,0,1,.811,11.753A88.83,88.83,0,0,1,2832.878,661.261Z"
         fill="#00b3eb"
         id="path494" />
      <path
         d="M2713.523,533.513a88.708,88.708,0,0,1,28.673-11.265q-.765-2.816-1.515-5.635a94.317,94.317,0,0,0-30.338,12.045C2711.4,530.279,2712.449,531.9,2713.523,533.513Z"
         fill="#00b3eb"
         id="path496" />
      <path
         d="M2679.116,559.59a94.479,94.479,0,0,0-14.362,50.18c0,.024,0,.047,0,.071,1.944-.62,3.9-1.216,5.848-1.813a88.688,88.688,0,0,1,13.9-46.045Q2681.826,560.756,2679.116,559.59Z"
         fill="#00b3eb"
         id="path498" />
      <path
         d="M2670.947,643.441a95.407,95.407,0,0,0,21.882,33.693q1.987-2.124,3.964-4.26a89.66,89.66,0,0,1-20.22-30.972C2674.69,642.385,2672.82,642.92,2670.947,643.441Z"
         fill="#00b3eb"
         id="path500" />
      <path
         d="M2816.206,679.061a89.079,89.079,0,0,1-83.337,15.867q-.984,2.732-1.945,5.476a94.852,94.852,0,0,0,88.767-16.692Q2817.972,681.366,2816.206,679.061Z"
         fill="#00b3eb"
         id="path502" />
      <path
         d="M2760.72,689.375a78.7,78.7,0,1,1,54.83-135.044c1.1-1.313,2.209-2.615,3.321-3.916a83.767,83.767,0,1,0,24.064,76.461q-2.462-.81-4.921-1.583A78.8,78.8,0,0,1,2760.72,689.375Z"
         fill="#00b3eb"
         id="path504" />
      <path
         d="M2693.155,606.132a67.17,67.17,0,0,1,19.5-42.712,66.071,66.071,0,0,1,15.985-11.731c-.595-1.34-1.222-2.667-1.826-4a70.371,70.371,0,0,0-17.264,12.628,71.542,71.542,0,0,0-20.794,45.91C2690.226,606.19,2691.691,606.162,2693.155,606.132Z"
         fill="#00b3eb"
         id="path506" />
      <path
         d="M2798.433,666.925a67.583,67.583,0,0,1-83.442-5.886c-1.082.995-2.2,1.958-3.293,2.935a71.986,71.986,0,0,0,88.76,6.9Q2799.456,668.886,2798.433,666.925Z"
         fill="#00b3eb"
         id="path508" />
      <path
         d="M2811.255,560.314a71.5,71.5,0,0,0-43.216-20.591v4.433a67.232,67.232,0,0,1,59.817,66.087c1.463-.13,2.927-.246,4.392-.36A71.588,71.588,0,0,0,2811.255,560.314Z"
         fill="#00b3eb"
         id="path510" />
      <path
         d="M2791.708,559.767q-.812,1.672-1.619,3.35a56.629,56.629,0,0,1,25.852,43.606h3.69A60.338,60.338,0,0,0,2791.708,559.767Z"
         fill="#00b3eb"
         id="path512" />
      <path
         d="M2814.432,624.136a56.946,56.946,0,0,1-31.569,38.126q.492,1.816.978,3.634a60.67,60.67,0,0,0,34.4-41.76Z"
         fill="#00b3eb"
         id="path514" />
      <path
         d="M2736.145,662.415a56.865,56.865,0,0,1-32.406-40.476q-1.79.486-3.581.962a60.584,60.584,0,0,0,34.6,42.943C2735.221,664.7,2735.679,663.557,2736.145,662.415Z"
         fill="#00b3eb"
         id="path516" />
      <path
         d="M2743.942,552.311a60.552,60.552,0,0,0-43.906,46.683q1.776.585,3.55,1.142a56.855,56.855,0,0,1,41.422-44.3Q2744.474,554.072,2743.942,552.311Z"
         fill="#00b3eb"
         id="path518" />
    </g>
    <text
       transform="translate(4081.367 6878.305)"
       fill="#fff"
       font-size="24"
       font-family="SegoeUI, Segoe UI"
       id="text526"><tspan
         x="-18.803"
         y="0"
         id="tspan522">Q1 </tspan><tspan
         x="-25.875"
         y="27"
         id="tspan524">2023</tspan></text>
  </g>
</svg>
